<svg width="358" height="142" viewBox="0 0 358 142" fill="none" xmlns="http://www.w3.org/2000/svg">
  <path d="M83.3119 80.1117V78.6557H74.1599V80.1117H77.9519V89.9997H79.5199V80.1117H83.3119Z" fill="#F9FAFB" />
  <path d="M86.2527 85.4717C86.2847 84.3357 86.8927 83.4397 88.0447 83.4397C89.3887 83.4397 89.8367 84.3037 89.8367 85.3757V89.9997H91.3407V85.1197C91.3407 83.4077 90.4287 82.0797 88.5887 82.0797C87.7087 82.0797 86.8127 82.3837 86.2527 83.1997V78.4157H84.7487V89.9997H86.2527V85.4717Z" fill="#F9FAFB" />
  <path d="M94.709 85.3597C94.773 84.3677 95.541 83.3917 96.805 83.3917C98.165 83.3917 98.885 84.2557 98.917 85.3597H94.709ZM99.141 87.3597C98.853 88.2237 98.229 88.9117 96.981 88.9117C95.685 88.9117 94.693 87.9517 94.661 86.5757H100.453C100.469 86.4797 100.485 86.2877 100.485 86.0957C100.485 83.6957 99.157 82.0637 96.789 82.0637C94.853 82.0637 93.109 83.7117 93.109 86.1277C93.109 88.7357 94.917 90.2397 96.981 90.2397C98.773 90.2397 100.005 89.1677 100.437 87.8077L99.141 87.3597Z" fill="#F9FAFB" />
  <path d="M109.637 83.4557C110.949 83.4557 111.509 84.3357 111.701 85.0877L113.061 84.5117C112.741 83.3437 111.685 82.0637 109.637 82.0637C107.445 82.0637 105.765 83.7437 105.765 86.1437C105.765 88.4797 107.413 90.2397 109.653 90.2397C111.653 90.2397 112.757 88.9437 113.125 87.8397L111.797 87.2637C111.621 87.8717 111.093 88.8477 109.653 88.8477C108.405 88.8477 107.301 87.9037 107.301 86.1437C107.301 84.3517 108.421 83.4557 109.637 83.4557Z" fill="#F9FAFB" />
  <path d="M118.107 88.8957C116.827 88.8957 115.707 87.9357 115.707 86.1437C115.707 84.3677 116.827 83.4077 118.107 83.4077C119.387 83.4077 120.507 84.3677 120.507 86.1437C120.507 87.9357 119.387 88.8957 118.107 88.8957ZM118.107 82.0637C115.803 82.0637 114.171 83.8077 114.171 86.1437C114.171 88.4957 115.803 90.2397 118.107 90.2397C120.411 90.2397 122.043 88.4957 122.043 86.1437C122.043 83.8077 120.411 82.0637 118.107 82.0637Z" fill="#F9FAFB" />
  <path d="M128.239 82.2237C128.159 82.2077 127.951 82.1757 127.743 82.1757C126.959 82.1757 125.999 82.4637 125.439 83.6477V82.3037H123.967V89.9997H125.471V86.1437C125.471 84.4477 126.319 83.7757 127.583 83.7757C127.791 83.7757 128.015 83.7917 128.239 83.8237V82.2237Z" fill="#F9FAFB" />
  <path d="M130.74 85.3597C130.804 84.3677 131.572 83.3917 132.836 83.3917C134.196 83.3917 134.916 84.2557 134.948 85.3597H130.74ZM135.172 87.3597C134.884 88.2237 134.26 88.9117 133.012 88.9117C131.716 88.9117 130.724 87.9517 130.692 86.5757H136.484C136.5 86.4797 136.516 86.2877 136.516 86.0957C136.516 83.6957 135.188 82.0637 132.82 82.0637C130.884 82.0637 129.14 83.7117 129.14 86.1277C129.14 88.7357 130.948 90.2397 133.012 90.2397C134.804 90.2397 136.036 89.1677 136.468 87.8077L135.172 87.3597Z" fill="#F9FAFB" />
  <path d="M143.332 86.1277C143.332 84.5437 144.228 83.4237 145.604 83.4237C146.98 83.4237 147.812 84.5117 147.812 86.0957C147.812 87.6797 146.964 88.8797 145.588 88.8797C144.148 88.8797 143.332 87.7117 143.332 86.1277ZM147.828 88.9597C147.828 89.4237 147.876 89.8237 147.908 89.9997H149.364C149.348 89.8717 149.284 89.3117 149.284 88.5757V78.4157H147.796V83.3917C147.54 82.7677 146.804 82.0957 145.444 82.0957C143.268 82.0957 141.796 83.9517 141.796 86.1277C141.796 88.4157 143.188 90.2077 145.444 90.2077C146.644 90.2077 147.46 89.5677 147.828 88.8317V88.9597Z" fill="#F9FAFB" />
  <path d="M152.818 85.3597C152.882 84.3677 153.65 83.3917 154.914 83.3917C156.274 83.3917 156.994 84.2557 157.026 85.3597H152.818ZM157.25 87.3597C156.962 88.2237 156.338 88.9117 155.09 88.9117C153.794 88.9117 152.802 87.9517 152.77 86.5757H158.562C158.578 86.4797 158.594 86.2877 158.594 86.0957C158.594 83.6957 157.266 82.0637 154.898 82.0637C152.962 82.0637 151.218 83.7117 151.218 86.1277C151.218 88.7357 153.026 90.2397 155.09 90.2397C156.882 90.2397 158.114 89.1677 158.546 87.8077L157.25 87.3597Z" fill="#F9FAFB" />
  <path d="M166.95 82.3037H165.334L163.126 88.2397L160.934 82.3037H159.238L162.358 89.9997H163.878L166.95 82.3037Z" fill="#F9FAFB" />
  <path d="M169.131 85.3597C169.195 84.3677 169.963 83.3917 171.227 83.3917C172.587 83.3917 173.307 84.2557 173.339 85.3597H169.131ZM173.563 87.3597C173.275 88.2237 172.651 88.9117 171.403 88.9117C170.107 88.9117 169.115 87.9517 169.083 86.5757H174.875C174.891 86.4797 174.907 86.2877 174.907 86.0957C174.907 83.6957 173.579 82.0637 171.211 82.0637C169.275 82.0637 167.531 83.7117 167.531 86.1277C167.531 88.7357 169.339 90.2397 171.403 90.2397C173.195 90.2397 174.427 89.1677 174.859 87.8077L173.563 87.3597Z" fill="#F9FAFB" />
  <path d="M178.331 89.9997V78.4157H176.827V89.9997H178.331Z" fill="#F9FAFB" />
  <path d="M184.185 88.8957C182.905 88.8957 181.785 87.9357 181.785 86.1437C181.785 84.3677 182.905 83.4077 184.185 83.4077C185.465 83.4077 186.585 84.3677 186.585 86.1437C186.585 87.9357 185.465 88.8957 184.185 88.8957ZM184.185 82.0637C181.881 82.0637 180.249 83.8077 180.249 86.1437C180.249 88.4957 181.881 90.2397 184.185 90.2397C186.489 90.2397 188.121 88.4957 188.121 86.1437C188.121 83.8077 186.489 82.0637 184.185 82.0637Z" fill="#F9FAFB" />
  <path d="M191.534 93.0397V88.9597C191.95 89.6477 192.846 90.2077 194.03 90.2077C196.286 90.2077 197.614 88.4317 197.614 86.1437C197.614 83.9037 196.382 82.1277 194.078 82.1277C192.83 82.1277 191.918 82.7357 191.502 83.5037V82.3037H190.046V93.0397H191.534ZM196.078 86.1437C196.078 87.7277 195.198 88.8637 193.806 88.8637C192.43 88.8637 191.518 87.7277 191.518 86.1437C191.518 84.6077 192.43 83.4557 193.806 83.4557C195.214 83.4557 196.078 84.6077 196.078 86.1437Z" fill="#F9FAFB" />
  <path d="M201.018 89.9997V85.3597C201.018 84.2077 201.738 83.4077 202.81 83.4077C203.962 83.4077 204.442 84.1757 204.442 85.1677V89.9997H205.946V85.3437C205.946 84.2397 206.666 83.4077 207.722 83.4077C208.858 83.4077 209.354 84.1597 209.354 85.1677V89.9997H210.842V85.0077C210.842 82.9917 209.53 82.0797 208.186 82.0797C207.21 82.0797 206.218 82.4317 205.61 83.5357C205.194 82.5437 204.266 82.0797 203.306 82.0797C202.41 82.0797 201.45 82.4797 200.97 83.3277V82.3037H199.53V89.9997H201.018Z" fill="#F9FAFB" />
  <path d="M214.225 85.3597C214.289 84.3677 215.057 83.3917 216.321 83.3917C217.681 83.3917 218.401 84.2557 218.433 85.3597H214.225ZM218.657 87.3597C218.369 88.2237 217.745 88.9117 216.497 88.9117C215.201 88.9117 214.209 87.9517 214.177 86.5757H219.969C219.985 86.4797 220.001 86.2877 220.001 86.0957C220.001 83.6957 218.673 82.0637 216.305 82.0637C214.369 82.0637 212.625 83.7117 212.625 86.1277C212.625 88.7357 214.433 90.2397 216.497 90.2397C218.289 90.2397 219.521 89.1677 219.953 87.8077L218.657 87.3597Z" fill="#F9FAFB" />
  <path d="M223.425 85.5517C223.425 84.3837 224.033 83.4397 225.217 83.4397C226.561 83.4397 227.009 84.3037 227.009 85.3757V89.9997H228.513V85.1197C228.513 83.4077 227.601 82.0797 225.761 82.0797C224.865 82.0797 223.953 82.4477 223.393 83.4077V82.3037H221.921V89.9997H223.425V85.5517Z" fill="#F9FAFB" />
  <path d="M232.921 79.8717H231.545V81.1197C231.545 81.7917 231.193 82.3037 230.361 82.3037H229.945V83.6637H231.417V87.8877C231.417 89.2797 232.249 90.0797 233.561 90.0797C234.073 90.0797 234.457 89.9837 234.585 89.9357V88.6557C234.457 88.6877 234.185 88.7197 233.993 88.7197C233.209 88.7197 232.921 88.3677 232.921 87.6637V83.6637H234.585V82.3037H232.921V79.8717Z" fill="#F9FAFB" />
  <path d="M242.608 79.8717H241.232V81.1197C241.232 81.7917 240.88 82.3037 240.048 82.3037H239.632V83.6637H241.104V87.8877C241.104 89.2797 241.936 90.0797 243.248 90.0797C243.76 90.0797 244.144 89.9837 244.272 89.9357V88.6557C244.144 88.6877 243.872 88.7197 243.68 88.7197C242.896 88.7197 242.608 88.3677 242.608 87.6637V83.6637H244.272V82.3037H242.608V79.8717Z" fill="#F9FAFB" />
  <path d="M247.178 85.3597C247.242 84.3677 248.01 83.3917 249.274 83.3917C250.634 83.3917 251.354 84.2557 251.386 85.3597H247.178ZM251.61 87.3597C251.322 88.2237 250.698 88.9117 249.45 88.9117C248.154 88.9117 247.162 87.9517 247.13 86.5757H252.922C252.938 86.4797 252.954 86.2877 252.954 86.0957C252.954 83.6957 251.626 82.0637 249.258 82.0637C247.322 82.0637 245.578 83.7117 245.578 86.1277C245.578 88.7357 247.386 90.2397 249.45 90.2397C251.242 90.2397 252.474 89.1677 252.906 87.8077L251.61 87.3597Z" fill="#F9FAFB" />
  <path d="M254.394 87.9357C254.394 89.1517 255.402 90.2397 256.97 90.2397C258.346 90.2397 259.114 89.5037 259.45 88.9597C259.45 89.5197 259.498 89.8077 259.53 89.9997H261.002C260.97 89.8077 260.906 89.4077 260.906 88.7357V84.8797C260.906 83.3757 260.01 82.0637 257.706 82.0637C256.042 82.0637 254.714 83.0877 254.554 84.5597L255.994 84.8957C256.09 83.9997 256.682 83.3437 257.738 83.3437C258.906 83.3437 259.402 83.9677 259.402 84.7197C259.402 84.9917 259.274 85.2317 258.81 85.2957L256.73 85.5997C255.402 85.7917 254.394 86.5597 254.394 87.9357ZM257.178 88.9757C256.41 88.9757 255.93 88.4317 255.93 87.8557C255.93 87.1677 256.41 86.7997 257.05 86.7037L259.402 86.3517V86.7037C259.402 88.3837 258.41 88.9757 257.178 88.9757Z" fill="#F9FAFB" />
  <path d="M264.737 89.9997V85.3597C264.737 84.2077 265.457 83.4077 266.529 83.4077C267.681 83.4077 268.161 84.1757 268.161 85.1677V89.9997H269.665V85.3437C269.665 84.2397 270.385 83.4077 271.441 83.4077C272.577 83.4077 273.073 84.1597 273.073 85.1677V89.9997H274.561V85.0077C274.561 82.9917 273.249 82.0797 271.905 82.0797C270.929 82.0797 269.937 82.4317 269.329 83.5357C268.913 82.5437 267.985 82.0797 267.025 82.0797C266.129 82.0797 265.169 82.4797 264.689 83.3277V82.3037H263.249V89.9997H264.737Z" fill="#F9FAFB" />
  <path d="M280.247 87.9997C280.375 88.8797 281.271 90.2397 283.383 90.2397C285.287 90.2397 286.199 88.9437 286.199 87.8557C286.199 86.7197 285.463 85.8717 284.071 85.5677L282.823 85.2957C282.231 85.1677 281.943 84.8317 281.943 84.3677C281.943 83.8397 282.455 83.3437 283.223 83.3437C284.439 83.3437 284.759 84.2237 284.823 84.6237L286.151 84.1277C285.991 83.4397 285.335 82.0637 283.223 82.0637C281.719 82.0637 280.487 83.1837 280.487 84.4957C280.487 85.5837 281.207 86.3997 282.407 86.6557L283.719 86.9437C284.359 87.0877 284.711 87.4557 284.711 87.9357C284.711 88.4797 284.247 88.9597 283.399 88.9597C282.311 88.9597 281.703 88.3197 281.607 87.5197L280.247 87.9997Z" fill="#F9FAFB" />
  <path d="M293.196 89.0717C293.196 89.3917 293.228 89.8237 293.26 89.9997H294.7C294.668 89.7277 294.62 89.1837 294.62 88.5757V82.3037H293.116V86.9437C293.116 88.1117 292.508 88.9117 291.292 88.9117C290.028 88.9117 289.548 87.9837 289.548 86.9277V82.3037H288.044V87.1517C288.044 88.8957 289.132 90.2397 290.924 90.2397C291.82 90.2397 292.78 89.8717 293.196 89.0717Z" fill="#F9FAFB" />
  <path d="M298.674 93.0397V88.9597C299.09 89.6477 299.986 90.2077 301.17 90.2077C303.426 90.2077 304.754 88.4317 304.754 86.1437C304.754 83.9037 303.522 82.1277 301.218 82.1277C299.97 82.1277 299.058 82.7357 298.642 83.5037V82.3037H297.186V93.0397H298.674ZM303.218 86.1437C303.218 87.7277 302.338 88.8637 300.946 88.8637C299.57 88.8637 298.658 87.7277 298.658 86.1437C298.658 84.6077 299.57 83.4557 300.946 83.4557C302.354 83.4557 303.218 84.6077 303.218 86.1437Z" fill="#F9FAFB" />
  <path d="M308.159 93.0397V88.9597C308.575 89.6477 309.471 90.2077 310.655 90.2077C312.911 90.2077 314.239 88.4317 314.239 86.1437C314.239 83.9037 313.007 82.1277 310.703 82.1277C309.455 82.1277 308.543 82.7357 308.127 83.5037V82.3037H306.671V93.0397H308.159ZM312.703 86.1437C312.703 87.7277 311.823 88.8637 310.431 88.8637C309.055 88.8637 308.143 87.7277 308.143 86.1437C308.143 84.6077 309.055 83.4557 310.431 83.4557C311.839 83.4557 312.703 84.6077 312.703 86.1437Z" fill="#F9FAFB" />
  <path d="M319.451 88.8957C318.171 88.8957 317.051 87.9357 317.051 86.1437C317.051 84.3677 318.171 83.4077 319.451 83.4077C320.731 83.4077 321.851 84.3677 321.851 86.1437C321.851 87.9357 320.731 88.8957 319.451 88.8957ZM319.451 82.0637C317.147 82.0637 315.515 83.8077 315.515 86.1437C315.515 88.4957 317.147 90.2397 319.451 90.2397C321.755 90.2397 323.387 88.4957 323.387 86.1437C323.387 83.8077 321.755 82.0637 319.451 82.0637Z" fill="#F9FAFB" />
  <path d="M329.583 82.2237C329.503 82.2077 329.295 82.1757 329.087 82.1757C328.303 82.1757 327.343 82.4637 326.783 83.6477V82.3037H325.311V89.9997H326.815V86.1437C326.815 84.4477 327.663 83.7757 328.927 83.7757C329.135 83.7757 329.359 83.7917 329.583 83.8237V82.2237Z" fill="#F9FAFB" />
  <path d="M333.608 79.8717H332.232V81.1197C332.232 81.7917 331.88 82.3037 331.048 82.3037H330.632V83.6637H332.104V87.8877C332.104 89.2797 332.936 90.0797 334.248 90.0797C334.76 90.0797 335.144 89.9837 335.272 89.9357V88.6557C335.144 88.6877 334.872 88.7197 334.68 88.7197C333.896 88.7197 333.608 88.3677 333.608 87.6637V83.6637H335.272V82.3037H333.608V79.8717Z" fill="#F9FAFB" />
  <path d="M338.768 89.9997V82.3037H337.28V89.9997H338.768ZM336.944 79.3917C336.944 79.9837 337.424 80.4637 338.016 80.4637C338.624 80.4637 339.104 79.9837 339.104 79.3917C339.104 78.7837 338.624 78.3037 338.016 78.3037C337.424 78.3037 336.944 78.7837 336.944 79.3917Z" fill="#F9FAFB" />
  <path d="M342.831 85.5517C342.831 84.3837 343.439 83.4397 344.623 83.4397C345.967 83.4397 346.415 84.3037 346.415 85.3757V89.9997H347.919V85.1197C347.919 83.4077 347.007 82.0797 345.167 82.0797C344.271 82.0797 343.359 82.4477 342.799 83.4077V82.3037H341.327V89.9997H342.831V85.5517Z" fill="#F9FAFB" />
  <path d="M349.751 90.4157C349.943 92.0637 351.383 93.2797 353.303 93.2797C356.199 93.2797 357.159 91.3757 357.159 89.4237V82.3037H355.671V83.3757C355.287 82.6077 354.487 82.1597 353.303 82.1597C351.191 82.1597 349.767 83.8237 349.767 85.9037C349.767 88.0797 351.255 89.6317 353.303 89.6317C354.455 89.6317 355.287 89.0717 355.655 88.3677V89.4717C355.655 91.1357 354.919 91.9677 353.303 91.9677C352.135 91.9677 351.319 91.1517 351.207 90.0797L349.751 90.4157ZM353.527 88.3677C352.167 88.3677 351.303 87.4077 351.303 85.9037C351.303 84.4157 352.199 83.4397 353.527 83.4397C354.823 83.4397 355.719 84.4157 355.719 85.9037C355.719 87.3917 354.823 88.3677 353.527 88.3677Z" fill="#F9FAFB" />
  <path d="M77.2959 103.872H75.9199V105.12C75.9199 105.792 75.5679 106.304 74.7359 106.304H74.3199V107.664H75.7919V111.888C75.7919 113.28 76.6239 114.08 77.9359 114.08C78.4479 114.08 78.8319 113.984 78.9599 113.936V112.656C78.8319 112.688 78.5599 112.72 78.3679 112.72C77.5839 112.72 77.2959 112.368 77.2959 111.664V107.664H78.9599V106.304H77.2959V103.872Z" fill="#F9FAFB" />
  <path d="M82.4714 109.472C82.5034 108.336 83.1114 107.44 84.2634 107.44C85.6074 107.44 86.0554 108.304 86.0554 109.376V114H87.5594V109.12C87.5594 107.408 86.6474 106.08 84.8074 106.08C83.9274 106.08 83.0314 106.384 82.4714 107.2V102.416H80.9674V114H82.4714V109.472Z" fill="#F9FAFB" />
  <path d="M90.9278 109.36C90.9918 108.368 91.7598 107.392 93.0238 107.392C94.3838 107.392 95.1038 108.256 95.1358 109.36H90.9278ZM95.3598 111.36C95.0718 112.224 94.4478 112.912 93.1998 112.912C91.9038 112.912 90.9118 111.952 90.8798 110.576H96.6718C96.6878 110.48 96.7038 110.288 96.7038 110.096C96.7038 107.696 95.3758 106.064 93.0078 106.064C91.0718 106.064 89.3278 107.712 89.3278 110.128C89.3278 112.736 91.1358 114.24 93.1998 114.24C94.9918 114.24 96.2238 113.168 96.6558 111.808L95.3598 111.36Z" fill="#F9FAFB" />
  <path d="M102.064 114.416C102.256 116.064 103.696 117.28 105.616 117.28C108.512 117.28 109.472 115.376 109.472 113.424V106.304H107.984V107.376C107.6 106.608 106.8 106.16 105.616 106.16C103.504 106.16 102.08 107.824 102.08 109.904C102.08 112.08 103.568 113.632 105.616 113.632C106.768 113.632 107.6 113.072 107.968 112.368V113.472C107.968 115.136 107.232 115.968 105.616 115.968C104.448 115.968 103.632 115.152 103.52 114.08L102.064 114.416ZM105.84 112.368C104.48 112.368 103.616 111.408 103.616 109.904C103.616 108.416 104.512 107.44 105.84 107.44C107.136 107.44 108.032 108.416 108.032 109.904C108.032 111.392 107.136 112.368 105.84 112.368Z" fill="#F9FAFB" />
  <path d="M116.146 106.224C116.066 106.208 115.858 106.176 115.65 106.176C114.866 106.176 113.906 106.464 113.346 107.648V106.304H111.874V114H113.378V110.144C113.378 108.448 114.226 107.776 115.49 107.776C115.698 107.776 115.922 107.792 116.146 107.824V106.224Z" fill="#F9FAFB" />
  <path d="M120.967 112.896C119.687 112.896 118.567 111.936 118.567 110.144C118.567 108.368 119.687 107.408 120.967 107.408C122.247 107.408 123.367 108.368 123.367 110.144C123.367 111.936 122.247 112.896 120.967 112.896ZM120.967 106.064C118.663 106.064 117.031 107.808 117.031 110.144C117.031 112.496 118.663 114.24 120.967 114.24C123.271 114.24 124.903 112.496 124.903 110.144C124.903 107.808 123.271 106.064 120.967 106.064Z" fill="#F9FAFB" />
  <path d="M131.007 106.304L129.007 112.096L127.279 106.304H125.631L128.159 114H129.743L131.743 108.144L133.791 114H135.343L137.839 106.304H136.255L134.559 112.096L132.559 106.304H131.007Z" fill="#F9FAFB" />
  <path d="M141.608 103.872H140.232V105.12C140.232 105.792 139.88 106.304 139.048 106.304H138.632V107.664H140.104V111.888C140.104 113.28 140.936 114.08 142.248 114.08C142.76 114.08 143.144 113.984 143.272 113.936V112.656C143.144 112.688 142.872 112.72 142.68 112.72C141.896 112.72 141.608 112.368 141.608 111.664V107.664H143.272V106.304H141.608V103.872Z" fill="#F9FAFB" />
  <path d="M146.784 109.472C146.816 108.336 147.424 107.44 148.576 107.44C149.92 107.44 150.368 108.304 150.368 109.376V114H151.872V109.12C151.872 107.408 150.96 106.08 149.12 106.08C148.24 106.08 147.344 106.384 146.784 107.2V102.416H145.28V114H146.784V109.472Z" fill="#F9FAFB" />
  <path d="M157.784 111.936C157.784 113.152 158.792 114.24 160.36 114.24C161.736 114.24 162.504 113.504 162.84 112.96C162.84 113.52 162.888 113.808 162.92 114H164.392C164.36 113.808 164.296 113.408 164.296 112.736V108.88C164.296 107.376 163.4 106.064 161.096 106.064C159.432 106.064 158.104 107.088 157.944 108.56L159.384 108.896C159.48 108 160.072 107.344 161.128 107.344C162.296 107.344 162.792 107.968 162.792 108.72C162.792 108.992 162.664 109.232 162.2 109.296L160.12 109.6C158.792 109.792 157.784 110.56 157.784 111.936ZM160.568 112.976C159.8 112.976 159.32 112.432 159.32 111.856C159.32 111.168 159.8 110.8 160.44 110.704L162.792 110.352V110.704C162.792 112.384 161.8 112.976 160.568 112.976Z" fill="#F9FAFB" />
  <path d="M168.143 109.552C168.143 108.384 168.751 107.44 169.935 107.44C171.279 107.44 171.727 108.304 171.727 109.376V114H173.231V109.12C173.231 107.408 172.319 106.08 170.479 106.08C169.583 106.08 168.671 106.448 168.111 107.408V106.304H166.639V114H168.143V109.552Z" fill="#F9FAFB" />
  <path d="M176.52 110.128C176.52 108.544 177.416 107.424 178.792 107.424C180.168 107.424 181 108.512 181 110.096C181 111.68 180.152 112.88 178.776 112.88C177.336 112.88 176.52 111.712 176.52 110.128ZM181.016 112.96C181.016 113.424 181.064 113.824 181.096 114H182.552C182.536 113.872 182.472 113.312 182.472 112.576V102.416H180.984V107.392C180.728 106.768 179.992 106.096 178.632 106.096C176.456 106.096 174.984 107.952 174.984 110.128C174.984 112.416 176.376 114.208 178.632 114.208C179.832 114.208 180.648 113.568 181.016 112.832V112.96Z" fill="#F9FAFB" />
  <path d="M188.31 112C188.438 112.88 189.334 114.24 191.446 114.24C193.35 114.24 194.262 112.944 194.262 111.856C194.262 110.72 193.526 109.872 192.134 109.568L190.886 109.296C190.294 109.168 190.006 108.832 190.006 108.368C190.006 107.84 190.518 107.344 191.286 107.344C192.502 107.344 192.822 108.224 192.886 108.624L194.214 108.128C194.054 107.44 193.398 106.064 191.286 106.064C189.782 106.064 188.55 107.184 188.55 108.496C188.55 109.584 189.27 110.4 190.47 110.656L191.782 110.944C192.422 111.088 192.774 111.456 192.774 111.936C192.774 112.48 192.31 112.96 191.462 112.96C190.374 112.96 189.766 112.32 189.67 111.52L188.31 112Z" fill="#F9FAFB" />
  <path d="M201.258 113.072C201.258 113.392 201.29 113.824 201.322 114H202.762C202.73 113.728 202.682 113.184 202.682 112.576V106.304H201.178V110.944C201.178 112.112 200.57 112.912 199.354 112.912C198.09 112.912 197.61 111.984 197.61 110.928V106.304H196.106V111.152C196.106 112.896 197.194 114.24 198.986 114.24C199.882 114.24 200.842 113.872 201.258 113.072Z" fill="#F9FAFB" />
  <path d="M208.403 107.456C209.715 107.456 210.275 108.336 210.467 109.088L211.827 108.512C211.507 107.344 210.451 106.064 208.403 106.064C206.211 106.064 204.531 107.744 204.531 110.144C204.531 112.48 206.179 114.24 208.419 114.24C210.419 114.24 211.523 112.944 211.891 111.84L210.563 111.264C210.387 111.872 209.859 112.848 208.419 112.848C207.171 112.848 206.067 111.904 206.067 110.144C206.067 108.352 207.187 107.456 208.403 107.456Z" fill="#F9FAFB" />
  <path d="M216.809 107.456C218.121 107.456 218.681 108.336 218.873 109.088L220.233 108.512C219.913 107.344 218.857 106.064 216.809 106.064C214.617 106.064 212.937 107.744 212.937 110.144C212.937 112.48 214.585 114.24 216.825 114.24C218.825 114.24 219.929 112.944 220.297 111.84L218.969 111.264C218.793 111.872 218.265 112.848 216.825 112.848C215.577 112.848 214.473 111.904 214.473 110.144C214.473 108.352 215.593 107.456 216.809 107.456Z" fill="#F9FAFB" />
  <path d="M222.959 109.36C223.023 108.368 223.791 107.392 225.055 107.392C226.415 107.392 227.135 108.256 227.167 109.36H222.959ZM227.391 111.36C227.103 112.224 226.479 112.912 225.231 112.912C223.935 112.912 222.943 111.952 222.911 110.576H228.703C228.719 110.48 228.735 110.288 228.735 110.096C228.735 107.696 227.407 106.064 225.039 106.064C223.103 106.064 221.359 107.712 221.359 110.128C221.359 112.736 223.167 114.24 225.231 114.24C227.023 114.24 228.255 113.168 228.687 111.808L227.391 111.36Z" fill="#F9FAFB" />
  <path d="M229.935 112C230.063 112.88 230.959 114.24 233.071 114.24C234.975 114.24 235.887 112.944 235.887 111.856C235.887 110.72 235.151 109.872 233.759 109.568L232.511 109.296C231.919 109.168 231.631 108.832 231.631 108.368C231.631 107.84 232.143 107.344 232.911 107.344C234.127 107.344 234.447 108.224 234.511 108.624L235.839 108.128C235.679 107.44 235.023 106.064 232.911 106.064C231.407 106.064 230.175 107.184 230.175 108.496C230.175 109.584 230.895 110.4 232.095 110.656L233.407 110.944C234.047 111.088 234.399 111.456 234.399 111.936C234.399 112.48 233.935 112.96 233.087 112.96C231.999 112.96 231.391 112.32 231.295 111.52L229.935 112Z" fill="#F9FAFB" />
  <path d="M237.169 112C237.297 112.88 238.193 114.24 240.305 114.24C242.209 114.24 243.121 112.944 243.121 111.856C243.121 110.72 242.385 109.872 240.993 109.568L239.745 109.296C239.153 109.168 238.865 108.832 238.865 108.368C238.865 107.84 239.377 107.344 240.145 107.344C241.361 107.344 241.681 108.224 241.745 108.624L243.073 108.128C242.913 107.44 242.257 106.064 240.145 106.064C238.641 106.064 237.409 107.184 237.409 108.496C237.409 109.584 238.129 110.4 239.329 110.656L240.641 110.944C241.281 111.088 241.633 111.456 241.633 111.936C241.633 112.48 241.169 112.96 240.321 112.96C239.233 112.96 238.625 112.32 238.529 111.52L237.169 112Z" fill="#F9FAFB" />
  <path d="M252.42 112.896C251.14 112.896 250.02 111.936 250.02 110.144C250.02 108.368 251.14 107.408 252.42 107.408C253.7 107.408 254.82 108.368 254.82 110.144C254.82 111.936 253.7 112.896 252.42 112.896ZM252.42 106.064C250.116 106.064 248.484 107.808 248.484 110.144C248.484 112.496 250.116 114.24 252.42 114.24C254.724 114.24 256.356 112.496 256.356 110.144C256.356 107.808 254.724 106.064 252.42 106.064Z" fill="#F9FAFB" />
  <path d="M262.152 107.664V106.304H260.296V105.088C260.296 104.032 260.984 103.776 261.512 103.776C261.896 103.776 262.088 103.84 262.168 103.872V102.528C262.104 102.48 261.784 102.368 261.272 102.368C259.88 102.368 258.744 103.296 258.744 105.008V106.304H257.32V107.664H258.744V114H260.296V107.664H262.152Z" fill="#F9FAFB" />
  <path d="M269.78 103.872H268.404V105.12C268.404 105.792 268.052 106.304 267.22 106.304H266.804V107.664H268.276V111.888C268.276 113.28 269.108 114.08 270.42 114.08C270.932 114.08 271.316 113.984 271.444 113.936V112.656C271.316 112.688 271.044 112.72 270.852 112.72C270.068 112.72 269.78 112.368 269.78 111.664V107.664H271.444V106.304H269.78V103.872Z" fill="#F9FAFB" />
  <path d="M274.956 109.472C274.988 108.336 275.596 107.44 276.748 107.44C278.092 107.44 278.54 108.304 278.54 109.376V114H280.044V109.12C280.044 107.408 279.132 106.08 277.292 106.08C276.412 106.08 275.516 106.384 274.956 107.2V102.416H273.452V114H274.956V109.472Z" fill="#F9FAFB" />
  <path d="M283.412 109.36C283.476 108.368 284.244 107.392 285.508 107.392C286.868 107.392 287.588 108.256 287.62 109.36H283.412ZM287.844 111.36C287.556 112.224 286.932 112.912 285.684 112.912C284.388 112.912 283.396 111.952 283.364 110.576H289.156C289.172 110.48 289.188 110.288 289.188 110.096C289.188 107.696 287.86 106.064 285.492 106.064C283.556 106.064 281.812 107.712 281.812 110.128C281.812 112.736 283.62 114.24 285.684 114.24C287.476 114.24 288.708 113.168 289.14 111.808L287.844 111.36Z" fill="#F9FAFB" />
  <path d="M80.3519 138.24C82.9599 138.24 84.7519 136.72 85.3599 134.592L83.9679 134.08C83.5039 135.632 82.2879 136.8 80.3519 136.8C78.2879 136.8 76.3199 135.28 76.3199 132.32C76.3199 129.36 78.2879 127.856 80.3519 127.856C82.2079 127.856 83.4559 128.816 83.8879 130.528L85.3439 130.016C84.7679 127.824 82.9439 126.416 80.3519 126.416C77.5359 126.416 74.7199 128.528 74.7199 132.32C74.7199 136.112 77.4239 138.24 80.3519 138.24Z" fill="#F9FAFB" />
  <path d="M86.4874 135.936C86.4874 137.152 87.4954 138.24 89.0634 138.24C90.4394 138.24 91.2074 137.504 91.5434 136.96C91.5434 137.52 91.5914 137.808 91.6234 138H93.0954C93.0634 137.808 92.9994 137.408 92.9994 136.736V132.88C92.9994 131.376 92.1034 130.064 89.7994 130.064C88.1354 130.064 86.8074 131.088 86.6474 132.56L88.0874 132.896C88.1834 132 88.7754 131.344 89.8314 131.344C90.9994 131.344 91.4954 131.968 91.4954 132.72C91.4954 132.992 91.3674 133.232 90.9034 133.296L88.8234 133.6C87.4954 133.792 86.4874 134.56 86.4874 135.936ZM89.2714 136.976C88.5034 136.976 88.0234 136.432 88.0234 135.856C88.0234 135.168 88.5034 134.8 89.1434 134.704L91.4954 134.352V134.704C91.4954 136.384 90.5034 136.976 89.2714 136.976Z" fill="#F9FAFB" />
  <path d="M99.6144 130.224C99.5344 130.208 99.3264 130.176 99.1184 130.176C98.3344 130.176 97.3744 130.464 96.8144 131.648V130.304H95.3424V138H96.8464V134.144C96.8464 132.448 97.6944 131.776 98.9584 131.776C99.1664 131.776 99.3904 131.792 99.6144 131.824V130.224Z" fill="#F9FAFB" />
  <path d="M100.737 135.936C100.737 137.152 101.745 138.24 103.313 138.24C104.689 138.24 105.457 137.504 105.793 136.96C105.793 137.52 105.841 137.808 105.873 138H107.345C107.313 137.808 107.249 137.408 107.249 136.736V132.88C107.249 131.376 106.353 130.064 104.049 130.064C102.385 130.064 101.057 131.088 100.897 132.56L102.337 132.896C102.433 132 103.025 131.344 104.081 131.344C105.249 131.344 105.745 131.968 105.745 132.72C105.745 132.992 105.617 133.232 105.153 133.296L103.073 133.6C101.745 133.792 100.737 134.56 100.737 135.936ZM103.521 136.976C102.753 136.976 102.273 136.432 102.273 135.856C102.273 135.168 102.753 134.8 103.393 134.704L105.745 134.352V134.704C105.745 136.384 104.753 136.976 103.521 136.976Z" fill="#F9FAFB" />
  <path d="M111.08 141.04V136.96C111.496 137.648 112.392 138.208 113.576 138.208C115.832 138.208 117.16 136.432 117.16 134.144C117.16 131.904 115.928 130.128 113.624 130.128C112.376 130.128 111.464 130.736 111.048 131.504V130.304H109.592V141.04H111.08ZM115.624 134.144C115.624 135.728 114.744 136.864 113.352 136.864C111.976 136.864 111.064 135.728 111.064 134.144C111.064 132.608 111.976 131.456 113.352 131.456C114.76 131.456 115.624 132.608 115.624 134.144Z" fill="#F9FAFB" />
  <path d="M118.597 135.936C118.597 137.152 119.605 138.24 121.173 138.24C122.549 138.24 123.317 137.504 123.653 136.96C123.653 137.52 123.701 137.808 123.733 138H125.205C125.173 137.808 125.109 137.408 125.109 136.736V132.88C125.109 131.376 124.213 130.064 121.909 130.064C120.245 130.064 118.917 131.088 118.757 132.56L120.197 132.896C120.293 132 120.885 131.344 121.941 131.344C123.109 131.344 123.605 131.968 123.605 132.72C123.605 132.992 123.477 133.232 123.013 133.296L120.933 133.6C119.605 133.792 118.597 134.56 118.597 135.936ZM121.381 136.976C120.613 136.976 120.133 136.432 120.133 135.856C120.133 135.168 120.613 134.8 121.253 134.704L123.605 134.352V134.704C123.605 136.384 122.613 136.976 121.381 136.976Z" fill="#F9FAFB" />
  <path d="M130.684 131.456C131.996 131.456 132.556 132.336 132.748 133.088L134.108 132.512C133.788 131.344 132.732 130.064 130.684 130.064C128.492 130.064 126.812 131.744 126.812 134.144C126.812 136.48 128.46 138.24 130.7 138.24C132.7 138.24 133.804 136.944 134.172 135.84L132.844 135.264C132.668 135.872 132.14 136.848 130.7 136.848C129.452 136.848 128.348 135.904 128.348 134.144C128.348 132.352 129.468 131.456 130.684 131.456Z" fill="#F9FAFB" />
  <path d="M136.834 133.36C136.898 132.368 137.666 131.392 138.93 131.392C140.29 131.392 141.01 132.256 141.042 133.36H136.834ZM141.266 135.36C140.978 136.224 140.354 136.912 139.106 136.912C137.81 136.912 136.818 135.952 136.786 134.576H142.578C142.594 134.48 142.61 134.288 142.61 134.096C142.61 131.696 141.282 130.064 138.914 130.064C136.978 130.064 135.234 131.712 135.234 134.128C135.234 136.736 137.042 138.24 139.106 138.24C140.898 138.24 142.13 137.168 142.562 135.808L141.266 135.36Z" fill="#F9FAFB" />
  <path d="M150.018 141.04V136.96C150.434 137.648 151.33 138.208 152.514 138.208C154.77 138.208 156.098 136.432 156.098 134.144C156.098 131.904 154.866 130.128 152.562 130.128C151.314 130.128 150.402 130.736 149.986 131.504V130.304H148.53V141.04H150.018ZM154.562 134.144C154.562 135.728 153.682 136.864 152.29 136.864C150.914 136.864 150.002 135.728 150.002 134.144C150.002 132.608 150.914 131.456 152.29 131.456C153.698 131.456 154.562 132.608 154.562 134.144Z" fill="#F9FAFB" />
  <path d="M162.286 130.224C162.206 130.208 161.998 130.176 161.79 130.176C161.006 130.176 160.046 130.464 159.486 131.648V130.304H158.014V138H159.518V134.144C159.518 132.448 160.366 131.776 161.63 131.776C161.838 131.776 162.062 131.792 162.286 131.824V130.224Z" fill="#F9FAFB" />
  <path d="M167.107 136.896C165.827 136.896 164.707 135.936 164.707 134.144C164.707 132.368 165.827 131.408 167.107 131.408C168.387 131.408 169.507 132.368 169.507 134.144C169.507 135.936 168.387 136.896 167.107 136.896ZM167.107 130.064C164.803 130.064 163.171 131.808 163.171 134.144C163.171 136.496 164.803 138.24 167.107 138.24C169.411 138.24 171.043 136.496 171.043 134.144C171.043 131.808 169.411 130.064 167.107 130.064Z" fill="#F9FAFB" />
  <path d="M174.905 127.872H173.529V129.12C173.529 129.792 173.177 130.304 172.345 130.304H171.929V131.664H173.401V135.888C173.401 137.28 174.233 138.08 175.545 138.08C176.057 138.08 176.441 137.984 176.569 137.936V136.656C176.441 136.688 176.169 136.72 175.977 136.72C175.193 136.72 174.905 136.368 174.905 135.664V131.664H176.569V130.304H174.905V127.872Z" fill="#F9FAFB" />
  <path d="M181.795 136.896C180.515 136.896 179.395 135.936 179.395 134.144C179.395 132.368 180.515 131.408 181.795 131.408C183.075 131.408 184.195 132.368 184.195 134.144C184.195 135.936 183.075 136.896 181.795 136.896ZM181.795 130.064C179.491 130.064 177.859 131.808 177.859 134.144C177.859 136.496 179.491 138.24 181.795 138.24C184.099 138.24 185.731 136.496 185.731 134.144C185.731 131.808 184.099 130.064 181.795 130.064Z" fill="#F9FAFB" />
  <path d="M190.887 131.456C192.199 131.456 192.759 132.336 192.951 133.088L194.311 132.512C193.991 131.344 192.935 130.064 190.887 130.064C188.695 130.064 187.015 131.744 187.015 134.144C187.015 136.48 188.663 138.24 190.903 138.24C192.903 138.24 194.007 136.944 194.375 135.84L193.047 135.264C192.871 135.872 192.343 136.848 190.903 136.848C189.655 136.848 188.551 135.904 188.551 134.144C188.551 132.352 189.671 131.456 190.887 131.456Z" fill="#F9FAFB" />
  <path d="M199.357 136.896C198.077 136.896 196.957 135.936 196.957 134.144C196.957 132.368 198.077 131.408 199.357 131.408C200.637 131.408 201.757 132.368 201.757 134.144C201.757 135.936 200.637 136.896 199.357 136.896ZM199.357 130.064C197.053 130.064 195.421 131.808 195.421 134.144C195.421 136.496 197.053 138.24 199.357 138.24C201.661 138.24 203.293 136.496 203.293 134.144C203.293 131.808 201.661 130.064 199.357 130.064Z" fill="#F9FAFB" />
  <path d="M206.721 138V126.416H205.217V138H206.721Z" fill="#F9FAFB" />
  <g clip-path="url(#clip0_127_51)">
    <path d="M33.6378 50.0169H49.5283V45.7936H36.3153C38.2125 44.0068 39.6657 41.8274 40.5672 39.3503C42.3836 34.3824 41.8992 28.6294 39.3024 24.3113C38.522 23.0254 37.5263 21.7394 36.3422 20.4941C34.3912 18.4501 32.05 16.6768 29.3859 15.2284L1.37229 0L0.591888 2.39594C0.511157 2.65313 -1.35911 8.52792 1.97777 12.6565C1.84322 15.3503 2.69089 19.4518 6.55252 21.4822C6.68707 22.2809 6.94272 23.3367 7.41365 24.4196C8.77262 27.5195 11.2887 29.1709 14.4507 29.0897L14.3431 24.8663C10.912 24.9475 10.616 20.467 10.5891 19.9662L10.5352 18.5313L9.18973 18.0575C5.62412 16.7851 6.14887 12.7377 6.2296 12.291L6.41797 11.181L5.59721 10.4095C4.44006 9.29949 4.1575 7.7022 4.18441 6.34856L27.3811 18.9509C27.5291 19.0322 27.6637 19.1134 27.7982 19.1946C25.309 23.7022 24.0039 28.7648 24.0039 33.9628C24.0039 38.1455 24.8381 42.1523 26.3585 45.8071H16.9937V50.0305H28.5248C32.9515 57.2453 40.3115 62.4839 49.1516 64L49.8647 59.8443C43.2044 58.6937 37.4994 55.0931 33.6243 50.0305L33.6378 50.0169ZM33.3148 23.4179C34.2971 24.4332 35.0909 25.4755 35.7099 26.4907C37.6339 29.6853 37.9972 34.1658 36.6248 37.8883C35.8175 40.0812 34.1221 42.8832 30.5296 44.8054C29.0361 41.489 28.2153 37.8071 28.2153 33.9492C28.2153 29.5905 29.2783 25.3536 31.2966 21.5635C32.0097 22.1455 32.6824 22.7682 33.3148 23.4179ZM41.8185 17.8816C43.4331 17.8816 43.4197 20.3993 41.8185 20.3993C40.2173 20.3993 40.2173 17.8816 41.8185 17.8816ZM34.8218 16.5144L31.4446 14.0102C33.409 11.3164 36.571 9.70558 39.8944 9.70558C45.6667 9.70558 50.376 14.4298 50.376 20.2504C50.376 21.577 50.1203 22.8765 49.6494 24.0948L55.2467 31.4721L46.9853 25.4213L44.9805 23.9594C45.7609 22.8765 46.1645 21.6041 46.1645 20.264C46.1645 16.7851 43.3524 13.9425 39.8809 13.9425C37.8896 13.9425 35.9924 14.9036 34.8084 16.5279L34.8218 16.5144Z" fill="white" />
    <path d="M41.5759 31.418C41.5759 31.418 41.6836 31.418 41.7374 31.4315C41.9796 31.4586 42.141 31.6752 42.1141 31.9188C42.0872 32.1354 41.8989 32.2978 41.6836 32.2978C41.6701 32.2978 41.6432 32.2978 41.6297 32.2978" fill="#62D5C9" />
    <path d="M31.4577 42.3689C30.9733 42.3689 30.5024 42.3689 30.018 42.3689C29.7758 42.3689 29.5874 42.1659 29.6009 41.9358C29.6009 41.6921 29.7892 41.5026 30.0314 41.5161C30.5024 41.5161 30.9733 41.5161 31.4577 41.5161H32.1843C32.4265 41.5161 32.6148 41.7056 32.6148 41.9493C32.6148 42.1929 32.4265 42.3825 32.1843 42.3825H31.4577V42.3689ZM34.3371 42.3283C34.1083 42.3283 33.92 42.1388 33.9065 41.9087C33.9065 41.665 34.0814 41.4755 34.3236 41.462C35.0502 41.4349 35.7633 41.4078 36.463 41.3672C36.7456 41.3672 36.907 41.5432 36.9205 41.7733C36.9339 42.0034 36.7456 42.22 36.5168 42.2336C35.8037 42.2742 35.0906 42.3012 34.3505 42.3283H34.3371ZM27.8786 42.3012H27.8652C27.1251 42.2742 26.412 42.2336 25.6989 42.1929C25.4567 42.1794 25.2818 41.9764 25.2952 41.7327C25.3087 41.4891 25.4836 41.2995 25.7527 41.3266C26.4524 41.3672 27.1655 41.4078 27.8921 41.4349C28.1343 41.4349 28.3092 41.6515 28.3092 41.8816C28.3092 42.1117 28.1073 42.3012 27.8786 42.3012ZM38.6427 42.0847C38.4275 42.0847 38.2391 41.9087 38.2122 41.6921C38.1987 41.4484 38.3736 41.2454 38.6024 41.2319C39.3289 41.1777 40.0421 41.11 40.7283 41.0288C40.957 41.0017 41.1723 41.1777 41.1992 41.4078C41.2261 41.6515 41.0512 41.8545 40.8225 41.8816C40.1228 41.9628 39.3962 42.0305 38.6696 42.0847C38.6696 42.0847 38.6427 42.0847 38.6293 42.0847H38.6427ZM23.573 42.0305C23.573 42.0305 23.546 42.0305 23.5326 42.0305C22.7926 41.9628 22.0794 41.8951 21.3798 41.8004C21.1376 41.7733 20.9761 41.5567 21.003 41.3131C21.0299 41.0694 21.2587 40.907 21.4874 40.9341C22.1736 41.0153 22.8867 41.0965 23.6133 41.1506C23.8555 41.1777 24.0304 41.3808 24.0035 41.6244C23.9901 41.8545 23.8017 42.017 23.573 42.017V42.0305ZM42.9349 41.6109C42.7196 41.6109 42.5447 41.462 42.5044 41.2454C42.4775 41.0153 42.6389 40.7852 42.8677 40.7581C43.5942 40.6498 44.3074 40.5415 44.9801 40.4197C45.2089 40.3791 45.4376 40.528 45.478 40.7716C45.5183 41.0017 45.3703 41.2319 45.1281 41.2725C44.4419 41.3943 43.7288 41.5161 42.9888 41.6244C42.9753 41.6244 42.9484 41.6244 42.9215 41.6244L42.9349 41.6109ZM19.2942 41.5026C19.2942 41.5026 19.2539 41.5026 19.2269 41.5026C18.4869 41.3808 17.7603 41.2589 17.0876 41.1236C16.8588 41.083 16.6974 40.8528 16.7512 40.6092C16.7916 40.3791 17.0203 40.2166 17.2625 40.2708C17.9352 40.4061 18.6349 40.528 19.3615 40.6363C19.5902 40.6769 19.7517 40.8934 19.7248 41.1236C19.6979 41.3401 19.5095 41.4891 19.2942 41.4891V41.5026ZM47.1733 40.8258C46.9715 40.8258 46.7966 40.6904 46.7562 40.4874C46.7024 40.2572 46.8504 40.0271 47.0791 39.973C47.8192 39.797 48.5054 39.6075 49.1243 39.418C49.353 39.3503 49.5952 39.4721 49.6625 39.7022C49.7298 39.9324 49.6087 40.176 49.3799 40.2437C48.7341 40.4467 48.021 40.6363 47.2675 40.8122C47.2406 40.8122 47.2002 40.8122 47.1733 40.8122V40.8258ZM15.0693 40.6633C15.0693 40.6633 15.002 40.6633 14.9617 40.6633C14.2082 40.4738 13.495 40.2572 12.8627 40.0407C12.6339 39.9594 12.5263 39.7158 12.5936 39.4857C12.6743 39.2555 12.9165 39.1473 13.1452 39.2149C13.7642 39.4315 14.4369 39.6346 15.1769 39.8241C15.4057 39.8782 15.5402 40.1219 15.4864 40.352C15.4326 40.5415 15.2577 40.6769 15.0693 40.6769V40.6633ZM51.2637 39.5127C51.1022 39.5127 50.9407 39.418 50.8735 39.2555C50.7793 39.039 50.8735 38.7818 51.0888 38.687C51.8288 38.3486 52.4074 37.9831 52.7976 37.6312C52.9725 37.4687 53.2416 37.4823 53.403 37.6583C53.5645 37.8342 53.551 38.105 53.3761 38.2674C52.9187 38.7006 52.2728 39.1066 51.4386 39.4857C51.3848 39.5127 51.3175 39.5263 51.2637 39.5263V39.5127ZM11.0193 39.2014C10.952 39.2014 10.8847 39.1879 10.8175 39.1473C9.95634 38.6735 9.3374 38.1726 9.01448 37.6312C8.89338 37.4281 8.9472 37.1574 9.14903 37.0356C9.35086 36.9138 9.61996 36.9679 9.74106 37.1709C9.99671 37.577 10.4945 37.9831 11.2211 38.3757C11.4364 38.484 11.5037 38.7547 11.396 38.9577C11.3153 39.1066 11.1673 39.1879 11.0193 39.1879V39.2014ZM53.6318 36.4535C53.4703 36.4535 53.3223 36.3588 53.2416 36.2099C53.0532 35.8038 52.5688 35.3706 51.8557 34.9645C51.6539 34.8427 51.5731 34.5855 51.6942 34.3689C51.8153 34.1659 52.071 34.0982 52.2863 34.2065C53.1743 34.7073 53.7529 35.2623 54.022 35.8444C54.1296 36.061 54.022 36.3182 53.8201 36.4264C53.7663 36.4535 53.6991 36.4671 53.6318 36.4671V36.4535ZM9.67378 35.885C9.56614 35.885 9.4585 35.8444 9.37777 35.7632C9.20285 35.6007 9.20285 35.33 9.36431 35.154C9.79488 34.7073 10.4273 34.2606 11.2749 33.8681C11.4902 33.7598 11.7459 33.8681 11.8535 34.0711C11.9612 34.2742 11.8535 34.5449 11.6517 34.6532C10.9117 35.0051 10.3465 35.3841 9.99671 35.7496C9.91598 35.8444 9.79488 35.885 9.68724 35.885H9.67378ZM50.0931 34.1253C50.0931 34.1253 49.9989 34.1253 49.9451 34.0982C49.3396 33.8816 48.6534 33.665 47.9268 33.4755C47.6981 33.4214 47.5635 33.1777 47.6173 32.9476C47.6711 32.7175 47.9133 32.5686 48.1421 32.6363C48.8956 32.8393 49.6087 33.0559 50.2411 33.286C50.4698 33.3672 50.5775 33.6109 50.4967 33.841C50.4294 34.017 50.268 34.1253 50.0931 34.1253ZM13.4547 33.8951C13.2798 33.8951 13.1048 33.7733 13.051 33.5973C12.9838 33.3672 13.1048 33.1236 13.3336 33.0559C13.9794 32.8528 14.6926 32.6498 15.446 32.4603C15.6882 32.4061 15.9035 32.555 15.9708 32.7852C16.0246 33.0153 15.8901 33.2454 15.6479 33.3131C14.9213 33.4891 14.2216 33.6786 13.6027 33.8816C13.5623 33.8951 13.5085 33.9087 13.4681 33.9087L13.4547 33.8951ZM45.9354 33.0017C45.9354 33.0017 45.8816 33.0017 45.8547 33.0017C45.1819 32.8664 44.4823 32.7445 43.7557 32.6227C43.527 32.5821 43.3655 32.3655 43.3924 32.1219C43.4328 31.8918 43.648 31.7293 43.8902 31.7564C44.6303 31.8782 45.3569 32 46.0296 32.1489C46.2584 32.2031 46.4064 32.4197 46.366 32.6633C46.3256 32.8664 46.1507 33.0153 45.9489 33.0153L45.9354 33.0017ZM17.6392 32.8664C17.4374 32.8664 17.2625 32.7175 17.2221 32.5144C17.1818 32.2843 17.3298 32.0542 17.572 32.0136C18.2582 31.8918 18.9713 31.7699 19.7113 31.6616C19.9401 31.6346 20.1688 31.797 20.1957 32.0271C20.2226 32.2572 20.0612 32.4874 19.8324 32.5144C19.1058 32.6227 18.3927 32.7446 17.72 32.8664C17.6931 32.8664 17.6661 32.8664 17.6392 32.8664Z" fill="#62D5C9" />
    <path d="M21.9584 32.2165C21.7432 32.2165 21.5548 32.054 21.5279 31.8374C21.501 31.5938 21.6759 31.3907 21.9046 31.3637C22.2545 31.3231 22.6178 31.2824 22.981 31.2554C23.2232 31.2554 23.4251 31.4043 23.452 31.6479C23.4789 31.8916 23.304 32.0946 23.0618 32.1217C22.6985 32.1488 22.3486 32.1894 21.9988 32.23C21.9854 32.23 21.9719 32.23 21.945 32.23L21.9584 32.2165Z" fill="#62D5C9" />
    <path d="M74.8636 41.8008L76.5858 40.7856C77.4873 43.9531 80.1514 46.1054 84.4705 46.1054C88.7896 46.1054 91.077 43.8448 91.077 40.8126C91.077 37.6451 88.3053 36.4269 84.2822 35.1544C79.8958 33.7196 75.9534 32.4742 75.9534 27.8719C75.9534 23.5267 79.4383 20.7788 83.9054 20.7788C88.3725 20.7788 91.077 23.2695 92.3553 26.3287L90.6599 27.2763C89.6777 24.8939 87.6594 22.7145 83.9054 22.7145C80.1514 22.7145 77.9717 24.8668 77.9717 27.8177C77.9717 30.9852 80.6358 31.9734 84.3898 33.2187C89.0453 34.7619 93.0953 36.2374 93.0953 40.8126C93.0953 45.3879 89.6777 48.0681 84.4571 48.0681C79.5459 48.0681 76.0476 45.5775 74.8501 41.8414L74.8636 41.8008Z" fill="white" />
    <path d="M84.4711 48.4606C79.5196 48.4606 75.7656 46.0241 74.4604 41.9361L74.3528 41.6112L76.842 40.1358L76.99 40.6637C77.8915 43.8447 80.6229 45.6721 84.4576 45.6721C88.2923 45.6721 90.6335 43.8583 90.6335 40.8126C90.6335 38.1053 88.5345 36.9682 84.1347 35.5605L84.0136 35.5198C79.6407 34.085 75.5099 32.7449 75.5099 27.8583C75.5099 23.4319 78.9544 20.332 83.8925 20.332C87.9021 20.332 91.2121 22.5114 92.7325 26.1391L92.8805 26.4911L90.4452 27.8583L90.2568 27.4116C89.4495 25.4488 87.6868 23.107 83.8925 23.107C80.596 23.107 78.3893 24.9885 78.3893 27.777C78.3893 30.5655 80.7171 31.5131 84.5114 32.772C88.9382 34.2474 93.5129 35.7635 93.5129 40.772C93.5129 45.3608 89.8666 48.4471 84.4576 48.4471L84.4711 48.4606ZM75.3754 41.9902C76.6671 45.5097 80.0309 47.5943 84.4711 47.5943C89.4495 47.5943 92.6787 44.9141 92.6787 40.772C92.6787 36.6298 89.3418 35.2762 84.2692 33.5841C80.6633 32.3929 77.5551 31.3642 77.5551 27.777C77.5551 24.5283 80.1654 22.2542 83.9059 22.2542C87.0814 22.2542 89.5302 23.8109 90.8623 26.6535L91.8041 26.1256C90.351 22.9852 87.485 21.1848 83.9059 21.1848C79.4657 21.1848 76.3711 23.9327 76.3711 27.8583C76.3711 32.1087 80.0443 33.3134 84.2961 34.6941L84.4172 34.7347C88.4269 36.0207 91.5081 37.2796 91.5081 40.799C91.5081 44.3185 88.8171 46.5114 84.4711 46.5114C80.4345 46.5114 77.5013 44.6569 76.3442 41.3946L75.3754 41.9632V41.9902Z" fill="white" />
    <path d="M101.062 30.5922V42.8561C101.062 46.1725 102.825 46.2538 106.659 45.9153V47.6209C101.748 48.379 99.1515 47.1742 99.1515 42.8697V30.6057H95.0208V28.7512H99.1515V24.027L101.062 23.4585V28.7377H106.659V30.5922H101.062Z" fill="white" />
    <path d="M104.17 48.2572C102.434 48.2572 101.169 47.8782 100.254 47.093C99.2182 46.1996 98.7069 44.8189 98.7069 42.8562V31.0118H94.5762V28.3046H98.7069V23.6886L101.479 22.8765V28.3046H107.076V31.0118H101.479V42.8562C101.479 43.9661 101.68 44.67 102.111 45.0761C102.865 45.7665 104.52 45.6717 106.605 45.4958L107.063 45.4551V47.9864L106.699 48.0406C105.757 48.1895 104.91 48.2572 104.156 48.2572H104.17ZM95.4373 30.159H99.568V42.8562C99.568 44.5482 99.9717 45.7123 100.819 46.4433C101.855 47.3367 103.631 47.6074 106.228 47.2419V46.3756C104.089 46.5516 102.488 46.5651 101.546 45.6988C100.927 45.1303 100.631 44.2233 100.631 42.8562V30.159H106.228V29.1709H100.631V24.0271L99.568 24.3384V29.1709H95.4373V30.159Z" fill="white" />
    <path d="M128.442 28.7381V47.6214H126.531V43.3574C124.957 46.1865 122.064 48.041 118.458 48.041C113.13 48.041 108.744 43.777 108.744 38.1865C108.744 32.596 113.13 28.332 118.458 28.332C122.064 28.332 124.957 30.1865 126.531 33.0156V28.7517H128.442V28.7381ZM126.531 38.173C126.531 33.6789 123.073 30.1324 118.606 30.1324C114.139 30.1324 110.654 33.6789 110.654 38.173C110.654 42.6671 114.139 46.2136 118.606 46.2136C123.073 46.2136 126.531 42.6671 126.531 38.173Z" fill="white" />
    <path d="M118.472 48.4605C112.781 48.4605 108.327 43.9394 108.327 38.1729C108.327 32.4064 112.781 27.8853 118.472 27.8853C121.594 27.8853 124.312 29.2118 126.115 31.5671V28.3049H128.887V48.0409H126.115V44.7787C124.312 47.134 121.594 48.4605 118.472 48.4605ZM118.472 28.7516C113.265 28.7516 109.175 32.8937 109.175 38.1729C109.175 43.4521 113.252 47.5942 118.472 47.5942C121.782 47.5942 124.594 45.9699 126.169 43.1272L126.963 41.6924V47.1746H128.025V29.1577H126.963V34.6399L126.169 33.2051C124.594 30.3759 121.782 28.738 118.472 28.738V28.7516ZM118.62 46.6467C113.924 46.6467 110.238 42.9242 110.238 38.1729C110.238 33.4216 113.924 29.6991 118.62 29.6991C123.316 29.6991 126.963 33.4216 126.963 38.1729C126.963 42.9242 123.303 46.6467 118.62 46.6467ZM118.62 30.5655C114.395 30.5655 111.085 33.9089 111.085 38.1729C111.085 42.4369 114.395 45.7803 118.62 45.7803C122.845 45.7803 126.115 42.4369 126.115 38.1729C126.115 33.9089 122.818 30.5655 118.62 30.5655Z" fill="white" />
    <path d="M142.368 28.4808V30.2947C139.139 30.2947 136.098 32.2981 136.098 37.1306V47.6213H134.228V28.738H136.098V32.4334C137.376 29.4554 139.812 28.4673 142.368 28.4673V28.4808Z" fill="white" />
    <path d="M136.529 48.041H133.797V28.3049H136.529V30.7956C137.82 28.9817 139.812 28.0342 142.368 28.0342H142.799V30.7008H142.368C139.542 30.7008 136.529 32.3794 136.529 37.1036V48.0274V48.041ZM134.658 47.1882H135.681V37.1171C135.681 32.0003 138.964 30.0376 141.951 29.8616V28.9005C139.327 29.0223 137.497 30.2677 136.502 32.5959L135.681 34.5046V29.1577H134.658V47.1746V47.1882Z" fill="white" />
    <path d="M146.149 20.0605H148.019V47.6206H146.149V20.0605Z" fill="white" />
    <path d="M148.464 48.0408H145.732V19.6279H148.464V48.0408ZM146.594 47.188H147.616V20.4807H146.594V47.188Z" fill="white" />
    <path d="M153.255 22.6595C153.255 21.8609 153.927 21.1841 154.762 21.1841C155.596 21.1841 156.269 21.8609 156.269 22.6595C156.269 23.4582 155.596 24.1756 154.762 24.1756C153.927 24.1756 153.255 23.4988 153.255 22.6595ZM153.82 28.7374H155.69V47.6206H153.82V28.7374Z" fill="white" />
    <path d="M156.107 48.0405H153.376V28.3044H156.107V48.0405ZM154.237 47.1877H155.259V29.1707H154.237V47.1877ZM154.748 24.5954C153.685 24.5954 152.824 23.7291 152.824 22.6597C152.824 21.5904 153.712 20.7646 154.748 20.7646C155.784 20.7646 156.672 21.631 156.672 22.6597C156.672 23.6885 155.811 24.5954 154.748 24.5954ZM154.748 21.6174C154.169 21.6174 153.672 22.0912 153.672 22.6597C153.672 23.2553 154.156 23.7427 154.748 23.7427C155.34 23.7427 155.824 23.2553 155.824 22.6597C155.824 22.0641 155.327 21.6174 154.748 21.6174Z" fill="white" />
    <path d="M177.339 35.872V47.6081H175.429V35.872C175.429 32.3932 173.437 30.1326 169.912 30.1326C166.387 30.1326 163.346 32.5556 163.346 37.6453V47.6081H161.476V28.7248H163.346V32.3119C164.772 29.5235 167.167 28.3052 170.06 28.3052C174.527 28.3052 177.339 31.2832 177.339 35.8585V35.872Z" fill="white" />
    <path d="M177.77 48.0411H174.998V35.8719C174.998 32.5419 173.101 30.5656 169.912 30.5656C166.064 30.5656 163.777 33.2187 163.777 37.6451V48.0411H161.045V28.305H163.777V30.8363C165.243 28.9006 167.383 27.8989 170.074 27.8989C174.756 27.8989 177.783 31.0258 177.783 35.8854V48.0546L177.77 48.0411ZM175.859 47.1883H176.922V35.8719C176.922 31.4725 174.298 28.7517 170.074 28.7517C167.14 28.7517 165.014 30.0241 163.736 32.5148L162.929 34.0851V29.1578H161.906V47.1747H162.929V37.6316C162.929 32.7314 165.606 29.6857 169.926 29.6857C173.585 29.6857 175.873 32.0546 175.873 35.8583V47.1747L175.859 47.1883Z" fill="white" />
    <path d="M201.166 28.7383V46.7146C201.166 52.3729 196.995 55.581 191.828 55.581C187.442 55.581 184.32 53.8077 182.975 51.0463L184.63 50.0987C185.612 52.1021 187.711 53.7671 191.842 53.7671C196.538 53.7671 199.309 51.0057 199.309 46.7011V43.2223C197.776 46.1326 194.883 48.0141 191.236 48.0141C185.868 48.0141 181.522 43.7502 181.522 38.1597C181.522 32.5691 185.881 28.3052 191.236 28.3052C194.883 28.3052 197.762 30.1867 199.309 33.0971V28.7113H201.18L201.166 28.7383ZM199.296 38.1732C199.296 33.6791 195.811 30.1326 191.344 30.1326C186.877 30.1326 183.392 33.6791 183.392 38.1732C183.392 42.6673 186.877 46.2138 191.344 46.2138C195.811 46.2138 199.296 42.6673 199.296 38.1732Z" fill="white" />
    <path d="M191.816 56.014C187.429 56.014 184.065 54.2813 182.572 51.2492L182.397 50.8837L184.792 49.5165L184.994 49.9226C186.097 52.1967 188.398 53.3473 191.816 53.3473C196.229 53.3473 198.853 50.8702 198.853 46.7145V44.7246C197.077 47.1206 194.359 48.4742 191.21 48.4742C185.519 48.4742 181.065 43.9531 181.065 38.1866C181.065 32.4201 185.519 27.8989 191.21 27.8989C194.359 27.8989 197.077 29.2526 198.853 31.6485V28.3186H201.584V46.7145C201.584 52.2779 197.655 56.014 191.816 56.014ZM183.527 51.2221C184.953 53.7263 187.941 55.1612 191.816 55.1612C197.144 55.1612 200.736 51.7636 200.736 46.7145V29.1713H199.714V34.8431L198.906 33.327C197.373 30.4302 194.56 28.7653 191.21 28.7653C186.003 28.7653 181.913 32.9074 181.913 38.1866C181.913 43.4658 185.99 47.6079 191.21 47.6079C194.56 47.6079 197.373 45.9429 198.906 43.0461L199.714 41.5301V46.7145C199.714 51.3304 196.686 54.2001 191.816 54.2001C187.47 54.2001 185.411 52.3862 184.442 50.6942L183.527 51.2086V51.2221ZM191.331 46.6468C186.635 46.6468 182.949 42.9243 182.949 38.173C182.949 33.4218 186.635 29.6993 191.331 29.6993C196.027 29.6993 199.714 33.4218 199.714 38.173C199.714 42.9243 196.027 46.6468 191.331 46.6468ZM191.331 30.5656C187.106 30.5656 183.796 33.9091 183.796 38.173C183.796 42.437 187.106 45.7805 191.331 45.7805C195.556 45.7805 198.866 42.437 198.866 38.173C198.866 33.9091 195.556 30.5656 191.331 30.5656Z" fill="white" />
    <path d="M219.588 42.6668C219.588 45.7666 216.884 48.0272 212.874 48.0272C209.12 48.0272 206.644 46.2539 205.743 43.8309L207.358 42.8834C208.03 44.9274 210.062 46.1998 212.874 46.1998C215.498 46.1998 217.718 45.0357 217.718 42.6532C217.718 37.523 206.348 40.4604 206.348 33.6651C206.348 30.6871 208.905 28.3047 212.726 28.3047C215.767 28.3047 218.095 29.7802 219.104 32.0813L217.53 32.9883C216.736 31.0255 214.785 30.1186 212.726 30.1186C210.291 30.1186 208.219 31.4045 208.219 33.6651C208.219 38.7277 219.588 35.7362 219.588 42.6532V42.6668Z" fill="white" />
    <path d="M212.874 48.4605C209.2 48.4605 206.388 46.7956 205.339 43.9935L205.218 43.6551L207.599 42.2609L207.761 42.7617C208.393 44.6568 210.304 45.7939 212.874 45.7939C214.905 45.7939 217.287 44.9817 217.287 42.667C217.287 40.6095 215.08 40.0409 212.51 39.3641C209.416 38.5519 205.904 37.645 205.904 33.6788C205.904 30.3218 208.77 27.8853 212.712 27.8853C215.847 27.8853 218.377 29.3878 219.48 31.9191L219.641 32.271L217.314 33.6111L217.125 33.1509C216.466 31.5265 214.825 30.5519 212.712 30.5519C210.6 30.5519 208.635 31.513 208.635 33.6788C208.635 35.6822 210.815 36.2372 213.344 36.8869C216.466 37.6991 220.018 38.6061 220.018 42.667C220.018 46.0781 217.085 48.4605 212.874 48.4605ZM206.28 44.0206C207.29 46.2677 209.725 47.5942 212.874 47.5942C216.574 47.5942 219.171 45.5638 219.171 42.667C219.171 39.2829 216.103 38.4842 213.143 37.7262C210.519 37.0494 207.801 36.3455 207.801 33.6788C207.801 31.337 209.833 29.6991 212.726 29.6991C214.999 29.6991 216.829 30.7008 217.717 32.3929L218.552 31.9191C217.502 29.9292 215.363 28.7516 212.726 28.7516C209.281 28.7516 206.778 30.8226 206.778 33.6788C206.778 36.9817 209.671 37.7397 212.739 38.5384C215.403 39.2287 218.148 39.9462 218.148 42.667C218.148 45.09 216.076 46.6467 212.887 46.6467C210.142 46.6467 208.043 45.4825 207.155 43.5198L206.294 44.0206H206.28Z" fill="white" />
    <path d="M248.893 45.726V47.6076H234.523V21.1846H236.514V45.726H248.893Z" fill="white" />
    <path d="M249.324 48.0409H234.092V20.7651H236.931V45.3066H249.31V48.0545L249.324 48.0409ZM234.953 47.1881H248.476V46.1594H236.097V21.6179H234.967V47.1881H234.953Z" fill="white" />
    <path d="M270.139 28.7381V47.6214H268.228V43.3574C266.654 46.1865 263.761 48.041 260.155 48.041C254.827 48.041 250.44 43.777 250.44 38.1865C250.44 32.596 254.827 28.332 260.155 28.332C263.761 28.332 266.654 30.1865 268.228 33.0156V28.7517H270.139V28.7381ZM268.228 38.173C268.228 33.6789 264.77 30.1324 260.303 30.1324C255.836 30.1324 252.351 33.6789 252.351 38.173C252.351 42.6671 255.836 46.2136 260.303 46.2136C264.77 46.2136 268.228 42.6671 268.228 38.173Z" fill="white" />
    <path d="M260.155 48.4605C254.463 48.4605 250.01 43.9394 250.01 38.1729C250.01 32.4064 254.463 27.8853 260.155 27.8853C263.277 27.8853 265.994 29.2118 267.797 31.5671V28.3049H270.569V48.0409H267.797V44.7787C265.994 47.134 263.277 48.4605 260.155 48.4605ZM260.155 28.7516C254.948 28.7516 250.857 32.8937 250.857 38.1729C250.857 43.4521 254.934 47.5942 260.155 47.5942C263.465 47.5942 266.277 45.9699 267.851 43.1272L268.645 41.6924V47.1746H269.708V29.1577H268.645V34.6399L267.851 33.2051C266.277 30.3759 263.465 28.738 260.155 28.738V28.7516ZM260.303 46.6467C255.607 46.6467 251.92 42.9242 251.92 38.1729C251.92 33.4216 255.607 29.6991 260.303 29.6991C264.999 29.6991 268.645 33.4216 268.645 38.1729C268.645 42.9242 264.985 46.6467 260.303 46.6467ZM260.303 30.5655C256.078 30.5655 252.768 33.9089 252.768 38.1729C252.768 42.4369 256.078 45.7803 260.303 45.7803C264.528 45.7803 267.797 42.4369 267.797 38.1729C267.797 33.9089 264.501 30.5655 260.303 30.5655Z" fill="white" />
    <path d="M295.584 38.1722C295.584 43.7628 291.224 48.0267 285.869 48.0267C282.223 48.0267 279.343 46.1452 277.796 43.2348V47.6206H275.926V21.1841H277.796V33.1096C279.33 30.1993 282.223 28.3178 285.869 28.3178C291.238 28.3178 295.584 32.5817 295.584 38.1722ZM293.713 38.1722C293.713 33.6782 290.229 30.1316 285.761 30.1316C281.294 30.1316 277.809 33.6782 277.809 38.1722C277.809 42.6663 281.294 46.2128 285.761 46.2128C290.229 46.2128 293.713 42.6663 293.713 38.1722Z" fill="white" />
    <path d="M285.855 48.4601C282.707 48.4601 279.989 47.1064 278.213 44.7105V48.0405H275.481V20.7646H278.213V31.6479C279.989 29.252 282.707 27.8983 285.855 27.8983C291.547 27.8983 296 32.4195 296 38.186C296 43.9525 291.547 48.4736 285.855 48.4736V48.4601ZM277.365 41.5159L278.172 43.032C279.706 45.9288 282.518 47.5938 285.869 47.5938C291.076 47.5938 295.166 43.4516 295.166 38.1724C295.166 32.8932 291.089 28.7511 285.869 28.7511C282.518 28.7511 279.706 30.4161 278.172 33.3129L277.365 34.8289V21.6174H276.342V47.1877H277.365V41.5159ZM285.747 46.6462C281.052 46.6462 277.365 42.9237 277.365 38.1724C277.365 33.4212 281.052 29.6987 285.747 29.6987C290.443 29.6987 294.13 33.4212 294.13 38.1724C294.13 42.9237 290.443 46.6462 285.747 46.6462ZM285.747 30.565C281.523 30.565 278.213 33.9085 278.213 38.1724C278.213 42.4364 281.523 45.7799 285.747 45.7799C289.972 45.7799 293.282 42.4364 293.282 38.1724C293.282 33.9085 289.972 30.565 285.747 30.565Z" fill="white" />
  </g>
  <defs>
    <clipPath id="clip0_127_51">
      <rect width="296" height="64" fill="white" />
    </clipPath>
  </defs>
</svg>
  