<svg width="186" height="40" viewbox="0 0 186 40" fill="none"
  xmlns="http://www.w3.org/2000/svg">
  <g clip-path="url(#clip0_3_3)">
    <path
      d="M21.1374 31.2606H31.1226V28.621H22.8199C24.012 27.5042 24.9252 26.1421 25.4917 24.5939C26.6331 21.489 26.3287 17.8934 24.6969 15.1946C24.2065 14.3909 23.5808 13.5871 22.8368 12.8088C21.6108 11.5313 20.1397 10.423 18.4656 9.51777L0.862448 0L0.372062 1.49746C0.321332 1.65821 -0.853903 5.32995 1.24292 7.91032C1.15837 9.59391 1.69103 12.1574 4.1176 13.4264C4.20214 13.9256 4.36279 14.5855 4.65871 15.2623C5.51266 17.1997 7.09373 18.2318 9.08064 18.181L9.013 15.5415C6.85699 15.5922 6.67098 12.7919 6.65407 12.4789L6.62025 11.5821L5.77476 11.286C3.53421 10.4907 3.86395 7.96108 3.91468 7.6819L4.03305 6.98816L3.5173 6.50592C2.79017 5.81218 2.61262 4.81388 2.62953 3.96785L17.2058 11.8443C17.2988 11.8951 17.3834 11.9459 17.4679 11.9966C15.9038 14.8139 15.0836 17.978 15.0836 21.2267C15.0836 23.8409 15.6078 26.3452 16.5633 28.6294H10.6786V31.269H17.9245C20.7062 35.7783 25.331 39.0525 30.8859 40L31.334 37.4027C27.1488 36.6836 23.5639 34.4332 21.1289 31.269L21.1374 31.2606ZM20.9345 14.6362C21.5517 15.2707 22.0505 15.9222 22.4394 16.5567C23.6485 18.5533 23.8768 21.3536 23.0144 23.6802C22.5071 25.0508 21.4417 26.802 19.1843 28.0034C18.2458 25.9306 17.73 23.6294 17.73 21.2183C17.73 18.4941 18.398 15.846 19.6662 13.4772C20.1143 13.8409 20.5371 14.2301 20.9345 14.6362ZM26.278 11.176C27.2926 11.176 27.2841 12.7496 26.278 12.7496C25.2718 12.7496 25.2718 11.176 26.278 11.176ZM21.8814 10.3215L19.7592 8.75635C20.9936 7.07276 22.9805 6.06599 25.0689 6.06599C28.6961 6.06599 31.6553 9.01861 31.6553 12.6565C31.6553 13.4856 31.4947 14.2978 31.1987 15.0592L34.716 19.6701L29.5247 15.8883L28.2649 14.9746C28.7553 14.2978 29.0089 13.5025 29.0089 12.665C29.0089 10.4907 27.2418 8.71404 25.0605 8.71404C23.8091 8.71404 22.617 9.31472 21.8729 10.33L21.8814 10.3215Z"
      fill="white"></path>
    <path
      d="M26.1255 19.6362C26.1255 19.6362 26.1931 19.6362 26.2269 19.6447C26.3791 19.6616 26.4806 19.797 26.4637 19.9493C26.4468 20.0846 26.3284 20.1861 26.1931 20.1861C26.1847 20.1861 26.1678 20.1861 26.1593 20.1861"
      fill="#62D5C9"></path>
    <path
      d="M19.7673 26.4805C19.463 26.4805 19.167 26.4805 18.8627 26.4805C18.7105 26.4805 18.5921 26.3536 18.6006 26.2098C18.6006 26.0575 18.7189 25.9391 18.8711 25.9475C19.167 25.9475 19.463 25.9475 19.7673 25.9475H20.2239C20.3761 25.9475 20.4945 26.066 20.4945 26.2182C20.4945 26.3705 20.3761 26.489 20.2239 26.489H19.7673V26.4805ZM21.5767 26.4551C21.433 26.4551 21.3146 26.3367 21.3061 26.1929C21.3061 26.0406 21.416 25.9221 21.5682 25.9137C22.0248 25.8968 22.4729 25.8798 22.9126 25.8545C23.0901 25.8545 23.1916 25.9644 23.2 26.1083C23.2085 26.2521 23.0901 26.3874 22.9464 26.3959C22.4983 26.4213 22.0502 26.4382 21.5851 26.4551H21.5767ZM17.5183 26.4382H17.5099C17.0448 26.4213 16.5967 26.3959 16.1486 26.3705C15.9964 26.3621 15.8865 26.2352 15.895 26.0829C15.9034 25.9306 16.0133 25.8122 16.1824 25.8291C16.6221 25.8545 17.0702 25.8798 17.5268 25.8968C17.679 25.8968 17.7889 26.0321 17.7889 26.1759C17.7889 26.3198 17.6621 26.4382 17.5183 26.4382ZM24.2823 26.3028C24.147 26.3028 24.0286 26.1929 24.0117 26.0575C24.0033 25.9052 24.1132 25.7783 24.2569 25.7699C24.7135 25.736 25.1616 25.6937 25.5928 25.6429C25.7365 25.626 25.8718 25.736 25.8887 25.8798C25.9056 26.0321 25.7957 26.159 25.652 26.1759C25.2123 26.2267 24.7557 26.269 24.2992 26.3028C24.2992 26.3028 24.2823 26.3028 24.2738 26.3028H24.2823ZM14.8127 26.269C14.8127 26.269 14.7958 26.269 14.7874 26.269C14.3224 26.2267 13.8742 26.1844 13.4346 26.1252C13.2824 26.1083 13.1809 25.9729 13.1979 25.8206C13.2148 25.6683 13.3585 25.5668 13.5022 25.5837C13.9334 25.6345 14.3815 25.6852 14.8381 25.7191C14.9903 25.736 15.1002 25.8629 15.0833 26.0152C15.0748 26.159 14.9565 26.2605 14.8127 26.2605V26.269ZM26.9794 26.0067C26.8441 26.0067 26.7342 25.9137 26.7088 25.7783C26.6919 25.6345 26.7934 25.4907 26.9371 25.4737C27.3937 25.4061 27.8418 25.3384 28.2645 25.2622C28.4083 25.2369 28.552 25.3299 28.5774 25.4822C28.6027 25.626 28.5097 25.7699 28.3575 25.7952C27.9263 25.8714 27.4782 25.9475 27.0132 26.0152C27.0048 26.0152 26.9878 26.0152 26.9709 26.0152L26.9794 26.0067ZM12.1241 25.9391C12.1241 25.9391 12.0987 25.9391 12.0818 25.9391C11.6168 25.8629 11.1602 25.7868 10.7375 25.7022C10.5937 25.6768 10.4923 25.533 10.5261 25.3807C10.5515 25.2369 10.6952 25.1353 10.8474 25.1692C11.2701 25.2538 11.7098 25.3299 12.1664 25.3976C12.3101 25.423 12.4115 25.5583 12.3946 25.7022C12.3777 25.8375 12.2594 25.9306 12.1241 25.9306V25.9391ZM29.6427 25.516C29.5159 25.516 29.406 25.4314 29.3806 25.3045C29.3468 25.1607 29.4398 25.0169 29.5835 24.983C30.0485 24.8731 30.4797 24.7546 30.8687 24.6362C31.0124 24.5939 31.1646 24.67 31.2069 24.8138C31.2491 24.9577 31.173 25.11 31.0293 25.1523C30.6235 25.2792 30.1754 25.3976 29.7019 25.5076C29.685 25.5076 29.6596 25.5076 29.6427 25.5076V25.516ZM9.46923 25.4145C9.46923 25.4145 9.42695 25.4145 9.40159 25.4145C8.92811 25.2961 8.48 25.1607 8.08262 25.0254C7.93889 24.9746 7.87125 24.8223 7.91352 24.6785C7.96425 24.5347 8.11644 24.467 8.26017 24.5093C8.6491 24.6446 9.07185 24.7715 9.53687 24.89C9.6806 24.9238 9.76515 25.0761 9.73133 25.2199C9.69751 25.3384 9.5876 25.423 9.46923 25.423V25.4145ZM32.213 24.6954C32.1115 24.6954 32.0101 24.6362 31.9678 24.5347C31.9086 24.3993 31.9678 24.2385 32.1031 24.1793C32.5681 23.9678 32.9317 23.7394 33.1769 23.5194C33.2868 23.4179 33.4559 23.4264 33.5573 23.5363C33.6588 23.6463 33.6503 23.8155 33.5404 23.9171C33.2529 24.1878 32.8471 24.4416 32.3229 24.6785C32.2891 24.6954 32.2468 24.7039 32.213 24.7039V24.6954ZM6.92429 24.5008C6.88202 24.5008 6.83974 24.4924 6.79747 24.467C6.25635 24.1709 5.86743 23.8578 5.66451 23.5194C5.58841 23.3925 5.62223 23.2233 5.74906 23.1472C5.87588 23.071 6.04498 23.1049 6.12108 23.2318C6.28172 23.4856 6.59455 23.7394 7.05112 23.9847C7.1864 24.0524 7.22867 24.2216 7.16103 24.3485C7.1103 24.4416 7.0173 24.4924 6.92429 24.4924V24.5008ZM33.7011 22.7834C33.5996 22.7834 33.5066 22.7242 33.4559 22.6311C33.3375 22.3773 33.0331 22.1066 32.585 21.8528C32.4582 21.7766 32.4075 21.6159 32.4835 21.4805C32.5596 21.3536 32.7203 21.3113 32.8556 21.379C33.4136 21.692 33.7772 22.0389 33.9463 22.4027C34.0139 22.538 33.9463 22.6988 33.8194 22.7665C33.7856 22.7834 33.7433 22.7918 33.7011 22.7918V22.7834ZM6.0788 22.4281C6.01116 22.4281 5.94352 22.4027 5.89279 22.3519C5.78288 22.2504 5.78288 22.0812 5.88434 21.9712C6.1549 21.692 6.55228 21.4128 7.08494 21.1675C7.22022 21.0998 7.38086 21.1675 7.4485 21.2944C7.51614 21.4213 7.4485 21.5905 7.32168 21.6582C6.85665 21.8781 6.50155 22.115 6.28172 22.3435C6.23099 22.4027 6.15489 22.4281 6.08726 22.4281H6.0788ZM31.4774 21.3282C31.4774 21.3282 31.4182 21.3282 31.3844 21.3113C31.0039 21.1759 30.5727 21.0406 30.1162 20.9221C29.9724 20.8883 29.8879 20.736 29.9217 20.5922C29.9555 20.4484 30.1077 20.3553 30.2514 20.3976C30.7249 20.5245 31.173 20.6599 31.5704 20.8037C31.7141 20.8545 31.7818 21.0067 31.7311 21.1506C31.6888 21.2605 31.5873 21.3282 31.4774 21.3282ZM8.45464 21.1844C8.34472 21.1844 8.23481 21.1083 8.20099 20.9983C8.15871 20.8545 8.23481 20.7022 8.37854 20.6599C8.78438 20.533 9.23249 20.4061 9.70597 20.2876C9.85815 20.2538 9.99343 20.3468 10.0357 20.4907C10.0695 20.6345 9.98498 20.7783 9.83279 20.8206C9.37622 20.9306 8.93657 21.049 8.54764 21.1759C8.52228 21.1844 8.48846 21.1929 8.46309 21.1929L8.45464 21.1844ZM28.8648 20.626C28.8648 20.626 28.831 20.626 28.8141 20.626C28.3914 20.5414 27.9517 20.4653 27.4951 20.3891C27.3514 20.3638 27.2499 20.2284 27.2669 20.0761C27.2922 19.9323 27.4275 19.8308 27.5797 19.8477C28.0447 19.9238 28.5013 20 28.924 20.093C29.0678 20.1269 29.1608 20.2622 29.1354 20.4145C29.11 20.5414 29.0001 20.6345 28.8733 20.6345L28.8648 20.626ZM11.0841 20.5414C10.9573 20.5414 10.8474 20.4484 10.822 20.3215C10.7967 20.1776 10.8897 20.0338 11.0418 20.0084C11.473 19.9323 11.9212 19.8561 12.3862 19.7885C12.5299 19.7715 12.6736 19.8731 12.6906 20.0169C12.7075 20.1607 12.606 20.3045 12.4623 20.3215C12.0057 20.3891 11.5576 20.4653 11.1348 20.5414C11.1179 20.5414 11.101 20.5414 11.0841 20.5414Z"
      fill="#62D5C9"></path>
    <path
      d="M13.7982 20.1353C13.6629 20.1353 13.5445 20.0338 13.5276 19.8985C13.5107 19.7462 13.6206 19.6193 13.7643 19.6023C13.9842 19.577 14.2124 19.5516 14.4407 19.5347C14.5929 19.5347 14.7197 19.6277 14.7367 19.78C14.7536 19.9323 14.6436 20.0592 14.4915 20.0761C14.2632 20.093 14.0433 20.1184 13.8235 20.1438C13.8151 20.1438 13.8066 20.1438 13.7897 20.1438L13.7982 20.1353Z"
      fill="#62D5C9"></path>
    <path
      d="M47.0426 26.1256L48.1249 25.491C48.6913 27.4707 50.3654 28.8159 53.0795 28.8159C55.7935 28.8159 57.2308 27.4031 57.2308 25.508C57.2308 23.5283 55.4891 22.7669 52.9611 21.9716C50.2048 21.0748 47.7275 20.2965 47.7275 17.42C47.7275 14.7042 49.9173 12.9868 52.7243 12.9868C55.5314 12.9868 57.2308 14.5435 58.034 16.4555L56.9687 17.0477C56.3515 15.5587 55.0833 14.1966 52.7243 14.1966C50.3654 14.1966 48.9957 15.5418 48.9957 17.3861C48.9957 19.3658 50.6698 19.9834 53.0287 20.7618C55.9541 21.7262 58.4991 22.6484 58.4991 25.508C58.4991 28.3675 56.3515 30.0427 53.071 30.0427C49.9849 30.0427 47.7867 28.486 47.0342 26.1509L47.0426 26.1256Z"
      fill="white"></path>
    <path
      d="M53.0798 30.2879C49.9684 30.2879 47.6094 28.765 46.7893 26.2101L46.7217 26.007L48.2858 25.0848L48.3788 25.4148C48.9453 27.403 50.6617 28.5451 53.0713 28.5451C55.481 28.5451 56.9521 27.4114 56.9521 25.5079C56.9521 23.8158 55.6332 23.1052 52.8684 22.2253L52.7923 22.1999C50.0445 21.3031 47.4488 20.4656 47.4488 17.4114C47.4488 14.6449 49.6133 12.7075 52.7162 12.7075C55.2358 12.7075 57.3157 14.0696 58.2711 16.337L58.3641 16.5569L56.8338 17.4114L56.7154 17.1322C56.2081 15.9055 55.1005 14.4419 52.7162 14.4419C50.6448 14.4419 49.2582 15.6178 49.2582 17.3607C49.2582 19.1035 50.7209 19.6957 53.1052 20.4825C55.8868 21.4046 58.7615 22.3522 58.7615 25.4825C58.7615 28.3505 56.4702 30.2794 53.0713 30.2794L53.0798 30.2879ZM47.3643 26.2439C48.1759 28.4436 50.2897 29.7464 53.0798 29.7464C56.2081 29.7464 58.2373 28.0713 58.2373 25.4825C58.2373 22.8936 56.1405 22.0476 52.953 20.9901C50.687 20.2456 48.734 19.6026 48.734 17.3607C48.734 15.3302 50.3742 13.9089 52.7247 13.9089C54.72 13.9089 56.2588 14.8818 57.0959 16.6585L57.6877 16.3285C56.7746 14.3657 54.9737 13.2405 52.7247 13.2405C49.9346 13.2405 47.9899 14.9579 47.9899 17.4114C47.9899 20.0679 50.2981 20.8209 52.9699 21.6838L53.046 21.7092C55.5655 22.5129 57.5017 23.2997 57.5017 25.4994C57.5017 27.6991 55.8107 29.0696 53.0798 29.0696C50.5433 29.0696 48.7001 27.9106 47.973 25.8716L47.3643 26.227V26.2439Z"
      fill="white"></path>
    <path
      d="M63.5052 19.1202V26.7851C63.5052 28.8579 64.6128 28.9087 67.0225 28.6972V29.7631C63.9364 30.2369 62.3046 29.484 62.3046 26.7936V19.1286H59.709V17.9696H62.3046V15.017L63.5052 14.6616V17.9611H67.0225V19.1202H63.5052Z"
      fill="white"></path>
    <path
      d="M65.458 30.1608C64.3674 30.1608 63.5726 29.9239 62.9977 29.4332C62.3466 28.8748 62.0254 28.0119 62.0254 26.7852V19.3825H59.4297V17.6904H62.0254V14.8055L63.7671 14.2979V17.6904H67.2843V19.3825H63.7671V26.7852C63.7671 27.4789 63.8939 27.9188 64.1644 28.1726C64.6379 28.6041 65.6779 28.5449 66.9884 28.4349L67.2759 28.4095V29.9916L67.0476 30.0254C66.4557 30.1185 65.9231 30.1608 65.4496 30.1608H65.458ZM59.9708 18.8495H62.5665V26.7852C62.5665 27.8427 62.8201 28.5703 63.3528 29.0271C64.0038 29.5855 65.1199 29.7547 66.7517 29.5263V28.9848C65.4073 29.0948 64.4012 29.1033 63.8093 28.5618C63.4204 28.2065 63.2344 27.6396 63.2344 26.7852V18.8495H66.7517V18.2319H63.2344V15.017L62.5665 15.2116V18.2319H59.9708V18.8495Z"
      fill="white"></path>
    <path
      d="M80.71 17.9614V29.7635H79.5094V27.0985C78.5202 28.8667 76.7024 30.0257 74.4365 30.0257C71.0883 30.0257 68.332 27.3608 68.332 23.8667C68.332 20.3726 71.0883 17.7076 74.4365 17.7076C76.7024 17.7076 78.5202 18.8667 79.5094 20.6349V17.9699H80.71V17.9614ZM79.5094 23.8582C79.5094 21.0494 77.3365 18.8329 74.5295 18.8329C71.7225 18.8329 69.5326 21.0494 69.5326 23.8582C69.5326 26.667 71.7225 28.8836 74.5295 28.8836C77.3365 28.8836 79.5094 26.667 79.5094 23.8582Z"
      fill="white"></path>
    <path
      d="M74.4453 30.2879C70.8689 30.2879 68.0703 27.4622 68.0703 23.8581C68.0703 20.2541 70.8689 17.4283 74.4453 17.4283C76.4069 17.4283 78.1148 18.2574 79.2477 19.7295V17.6906H80.9894V30.0256H79.2477V27.9867C78.1148 29.4588 76.4069 30.2879 74.4453 30.2879ZM74.4453 17.9698C71.1733 17.9698 68.603 20.5586 68.603 23.8581C68.603 27.1576 71.1648 29.7464 74.4453 29.7464C76.5252 29.7464 78.2923 28.7312 79.2815 26.9546L79.7804 26.0578V29.4842H80.4483V18.2236H79.7804V21.65L79.2815 20.7532C78.2923 18.985 76.5252 17.9613 74.4453 17.9613V17.9698ZM74.5383 29.1542C71.5876 29.1542 69.2709 26.8277 69.2709 23.8581C69.2709 20.8886 71.5876 18.562 74.5383 18.562C77.4891 18.562 79.7804 20.8886 79.7804 23.8581C79.7804 26.8277 77.4807 29.1542 74.5383 29.1542ZM74.5383 19.1035C71.8835 19.1035 69.8036 21.1932 69.8036 23.8581C69.8036 26.5231 71.8835 28.6128 74.5383 28.6128C77.1932 28.6128 79.2477 26.5231 79.2477 23.8581C79.2477 21.1932 77.1763 19.1035 74.5383 19.1035Z"
      fill="white"></path>
    <path
      d="M89.4609 17.8007V18.9344C87.4317 18.9344 85.5209 20.1865 85.5209 23.2068V29.7635H84.3457V17.9614H85.5209V20.2711C86.3242 18.4098 87.8545 17.7922 89.4609 17.7922V17.8007Z"
      fill="white"></path>
    <path
      d="M85.7915 30.0257H84.0752V17.6907H85.7915V19.2474C86.6032 18.1137 87.8545 17.5215 89.461 17.5215H89.7315V19.1882H89.461C87.6854 19.1882 85.7915 20.2372 85.7915 23.1898V30.0173V30.0257ZM84.6163 29.4927H85.2589V23.1983C85.2589 20.0003 87.3219 18.7736 89.1989 18.6636V18.0629C87.5502 18.1391 86.4003 18.9174 85.7746 20.3726L85.2589 21.5655V18.2237H84.6163V29.4843V29.4927Z"
      fill="white"></path>
    <path d="M91.8369 12.5381H93.0121V29.7631H91.8369V12.5381Z" fill="white"></path>
    <path
      d="M93.2915 30.0256H91.5752V12.2676H93.2915V30.0256ZM92.1163 29.4926H92.7589V12.8006H92.1163V29.4926Z"
      fill="white"></path>
    <path
      d="M96.3018 14.1624C96.3018 13.6632 96.7245 13.2402 97.2487 13.2402C97.7729 13.2402 98.1957 13.6632 98.1957 14.1624C98.1957 14.6616 97.7729 15.1099 97.2487 15.1099C96.7245 15.1099 96.3018 14.6869 96.3018 14.1624ZM96.6569 17.961H97.8321V29.7631H96.6569V17.961Z"
      fill="white"></path>
    <path
      d="M98.0942 30.0254H96.3779V17.6904H98.0942V30.0254ZM96.919 29.4924H97.5616V18.2318H96.919V29.4924ZM97.2403 15.3723C96.5724 15.3723 96.0312 14.8308 96.0312 14.1625C96.0312 13.4941 96.5893 12.978 97.2403 12.978C97.8913 12.978 98.4494 13.5195 98.4494 14.1625C98.4494 14.8054 97.9082 15.3723 97.2403 15.3723ZM97.2403 13.511C96.8767 13.511 96.5639 13.8071 96.5639 14.1625C96.5639 14.5347 96.8683 14.8393 97.2403 14.8393C97.6123 14.8393 97.9167 14.5347 97.9167 14.1625C97.9167 13.7902 97.6039 13.511 97.2403 13.511Z"
      fill="white"></path>
    <path
      d="M111.436 22.4201V29.7551H110.236V22.4201C110.236 20.2458 108.984 18.8329 106.769 18.8329C104.554 18.8329 102.643 20.3473 102.643 23.5284V29.7551H101.468V17.9531H102.643V20.195C103.539 18.4522 105.044 17.6908 106.862 17.6908C109.669 17.6908 111.436 19.552 111.436 22.4116V22.4201Z"
      fill="white"></path>
    <path
      d="M111.707 30.0258H109.965V22.4201C109.965 20.3389 108.773 19.1037 106.769 19.1037C104.351 19.1037 102.914 20.7619 102.914 23.5284V30.0258H101.197V17.6908H102.914V19.2729C103.835 18.0631 105.18 17.437 106.871 17.437C109.813 17.437 111.715 19.3913 111.715 22.4286V30.0343L111.707 30.0258ZM110.506 29.4929H111.174V22.4201C111.174 19.6705 109.525 17.97 106.871 17.97C105.027 17.97 103.691 18.7653 102.888 20.322L102.381 21.3033V18.2238H101.738V29.4844H102.381V23.5199C102.381 20.4573 104.063 18.5538 106.778 18.5538C109.077 18.5538 110.515 20.0343 110.515 22.4116V29.4844L110.506 29.4929Z"
      fill="white"></path>
    <path
      d="M126.409 17.9616V29.1968C126.409 32.7332 123.788 34.7383 120.541 34.7383C117.785 34.7383 115.823 33.63 114.978 31.9041L116.018 31.3119C116.635 32.564 117.954 33.6046 120.549 33.6046C123.5 33.6046 125.242 31.8787 125.242 29.1884V27.0141C124.278 28.8331 122.46 30.009 120.169 30.009C116.795 30.009 114.064 27.344 114.064 23.85C114.064 20.3559 116.804 17.6909 120.169 17.6909C122.46 17.6909 124.27 18.8669 125.242 20.6858V17.9447H126.417L126.409 17.9616ZM125.233 23.8584C125.233 21.0496 123.044 18.8331 120.237 18.8331C117.43 18.8331 115.24 21.0496 115.24 23.8584C115.24 26.6672 117.43 28.8838 120.237 28.8838C123.044 28.8838 125.233 26.6672 125.233 23.8584Z"
      fill="white"></path>
    <path
      d="M120.533 35.0089C117.777 35.0089 115.663 33.926 114.724 32.0309L114.614 31.8025L116.119 30.948L116.246 31.2018C116.939 32.6231 118.385 33.3423 120.533 33.3423C123.306 33.3423 124.955 31.794 124.955 29.1967V27.9531C123.839 29.4505 122.131 30.2966 120.152 30.2966C116.576 30.2966 113.777 27.4709 113.777 23.8668C113.777 20.2627 116.576 17.437 120.152 17.437C122.131 17.437 123.839 18.283 124.955 19.7805V17.6993H126.671V29.1967C126.671 32.6739 124.202 35.0089 120.533 35.0089ZM115.325 32.014C116.221 33.5791 118.098 34.4759 120.533 34.4759C123.881 34.4759 126.138 32.3524 126.138 29.1967V18.2323H125.496V21.7771L124.989 20.8296C124.025 19.0191 122.258 17.9785 120.152 17.9785C116.88 17.9785 114.31 20.5673 114.31 23.8668C114.31 27.1663 116.872 29.7551 120.152 29.7551C122.258 29.7551 124.025 28.7145 124.989 26.904L125.496 25.9565V29.1967C125.496 32.0817 123.594 33.8753 120.533 33.8753C117.802 33.8753 116.508 32.7416 115.9 31.6841L115.325 32.0055V32.014ZM120.228 29.1544C117.278 29.1544 114.961 26.8279 114.961 23.8583C114.961 20.8888 117.278 18.5622 120.228 18.5622C123.179 18.5622 125.496 20.8888 125.496 23.8583C125.496 26.8279 123.179 29.1544 120.228 29.1544ZM120.228 19.1037C117.574 19.1037 115.494 21.1934 115.494 23.8583C115.494 26.5233 117.574 28.613 120.228 28.613C122.883 28.613 124.963 26.5233 124.963 23.8583C124.963 21.1934 122.883 19.1037 120.228 19.1037Z"
      fill="white"></path>
    <path
      d="M137.985 26.6669C137.985 28.6043 136.285 30.0171 133.766 30.0171C131.407 30.0171 129.851 28.9088 129.284 27.3944L130.299 26.8022C130.722 28.0797 131.998 28.875 133.766 28.875C135.414 28.875 136.809 28.1474 136.809 26.6584C136.809 23.452 129.665 25.2878 129.665 21.0408C129.665 19.1796 131.271 17.6906 133.673 17.6906C135.583 17.6906 137.046 18.6127 137.68 20.051L136.691 20.6178C136.192 19.3911 134.966 18.8242 133.673 18.8242C132.142 18.8242 130.84 19.6279 130.84 21.0408C130.84 24.2049 137.985 22.3352 137.985 26.6584V26.6669Z"
      fill="white"></path>
    <path
      d="M133.765 30.2879C131.457 30.2879 129.69 29.2473 129.03 27.496L128.954 27.2845L130.451 26.4131L130.552 26.7261C130.95 27.9106 132.15 28.6212 133.765 28.6212C135.042 28.6212 136.538 28.1136 136.538 26.6669C136.538 25.381 135.152 25.0256 133.537 24.6026C131.592 24.095 129.386 23.5282 129.386 21.0493C129.386 18.9512 131.186 17.4283 133.664 17.4283C135.634 17.4283 137.223 18.3674 137.917 19.9495L138.018 20.1695L136.555 21.007L136.437 20.7194C136.023 19.7041 134.991 19.095 133.664 19.095C132.336 19.095 131.102 19.6957 131.102 21.0493C131.102 22.3014 132.472 22.6483 134.061 23.0544C136.023 23.562 138.255 24.1289 138.255 26.6669C138.255 28.7989 136.412 30.2879 133.765 30.2879ZM129.622 27.5129C130.256 28.9173 131.787 29.7464 133.765 29.7464C136.09 29.7464 137.722 28.4774 137.722 26.6669C137.722 24.5519 135.794 24.0527 133.934 23.5789C132.286 23.1559 130.578 22.716 130.578 21.0493C130.578 19.5857 131.854 18.562 133.672 18.562C135.101 18.562 136.251 19.1881 136.809 20.2456L137.333 19.9495C136.674 18.7058 135.329 17.9698 133.672 17.9698C131.508 17.9698 129.935 19.2642 129.935 21.0493C129.935 23.1136 131.753 23.5874 133.681 24.0866C135.355 24.518 137.08 24.9664 137.08 26.6669C137.08 28.1813 135.777 29.1542 133.774 29.1542C132.049 29.1542 130.73 28.4267 130.172 27.1999L129.631 27.5129H129.622Z"
      fill="white"></path>
    <path d="M156.399 28.5789V29.7549H147.369V13.2405H148.62V28.5789H156.399Z" fill="white"></path>
    <path
      d="M156.67 30.0257H147.099V12.9783H148.883V28.3167H156.661V30.0341L156.67 30.0257ZM147.64 29.4927H156.137V28.8497H148.358V13.5113H147.648V29.4927H147.64Z"
      fill="white"></path>
    <path
      d="M169.749 17.9613V29.7634H168.549V27.0984C167.56 28.8666 165.742 30.0256 163.476 30.0256C160.128 30.0256 157.371 27.3606 157.371 23.8666C157.371 20.3725 160.128 17.7075 163.476 17.7075C165.742 17.7075 167.56 18.8666 168.549 20.6348V17.9698H169.749V17.9613ZM168.549 23.8581C168.549 21.0493 166.376 18.8327 163.569 18.8327C160.762 18.8327 158.572 21.0493 158.572 23.8581C158.572 26.6669 160.762 28.8835 163.569 28.8835C166.376 28.8835 168.549 26.6669 168.549 23.8581Z"
      fill="white"></path>
    <path
      d="M163.476 30.2879C159.899 30.2879 157.101 27.4622 157.101 23.8581C157.101 20.2541 159.899 17.4283 163.476 17.4283C165.437 17.4283 167.145 18.2574 168.278 19.7295V17.6906H170.02V30.0256H168.278V27.9867C167.145 29.4588 165.437 30.2879 163.476 30.2879ZM163.476 17.9698C160.204 17.9698 157.633 20.5586 157.633 23.8581C157.633 27.1576 160.195 29.7464 163.476 29.7464C165.556 29.7464 167.323 28.7312 168.312 26.9546L168.811 26.0578V29.4842H169.479V18.2236H168.811V21.65L168.312 20.7532C167.323 18.985 165.556 17.9613 163.476 17.9613V17.9698ZM163.569 29.1542C160.618 29.1542 158.301 26.8277 158.301 23.8581C158.301 20.8886 160.618 18.562 163.569 18.562C166.52 18.562 168.811 20.8886 168.811 23.8581C168.811 26.8277 166.511 29.1542 163.569 29.1542ZM163.569 19.1035C160.914 19.1035 158.834 21.1932 158.834 23.8581C158.834 26.5231 160.914 28.6128 163.569 28.6128C166.224 28.6128 168.278 26.5231 168.278 23.8581C168.278 21.1932 166.207 19.1035 163.569 19.1035Z"
      fill="white"></path>
    <path
      d="M185.738 23.8578C185.738 27.3519 182.999 30.0169 179.634 30.0169C177.343 30.0169 175.533 28.8409 174.561 27.022V29.7631H173.386V13.2402H174.561V20.6937C175.525 18.8748 177.343 17.6988 179.634 17.6988C183.007 17.6988 185.738 20.3638 185.738 23.8578ZM184.563 23.8578C184.563 21.049 182.373 18.8325 179.566 18.8325C176.759 18.8325 174.569 21.049 174.569 23.8578C174.569 26.6666 176.759 28.8832 179.566 28.8832C182.373 28.8832 184.563 26.6666 184.563 23.8578Z"
      fill="white"></path>
    <path
      d="M179.625 30.2877C177.647 30.2877 175.939 29.4416 174.823 27.9442V30.0254H173.106V12.978H174.823V19.7801C175.939 18.2826 177.647 17.4366 179.625 17.4366C183.202 17.4366 186 20.2623 186 23.8664C186 27.4704 183.202 30.2961 179.625 30.2961V30.2877ZM174.29 25.9476L174.797 26.8951C175.761 28.7056 177.528 29.7462 179.634 29.7462C182.906 29.7462 185.476 27.1574 185.476 23.8579C185.476 20.5584 182.914 17.9696 179.634 17.9696C177.528 17.9696 175.761 19.0102 174.797 20.8207L174.29 21.7682V13.511H173.648V29.4924H174.29V25.9476ZM179.558 29.154C176.607 29.154 174.29 26.8274 174.29 23.8579C174.29 20.8884 176.607 18.5618 179.558 18.5618C182.508 18.5618 184.825 20.8884 184.825 23.8579C184.825 26.8274 182.508 29.154 179.558 29.154ZM179.558 19.1032C176.903 19.1032 174.823 21.1929 174.823 23.8579C174.823 26.5229 176.903 28.6125 179.558 28.6125C182.212 28.6125 184.292 26.5229 184.292 23.8579C184.292 21.1929 182.212 19.1032 179.558 19.1032Z"
      fill="white"></path>
  </g>
  <defs>
    <clippath id="clip0_3_3">
      <rect width="186" height="40" fill="white"></rect>
    </clippath>
  </defs>
</svg>