<svg fill="none" height="48" viewBox="0 0 41 48" width="41" xmlns="http://www.w3.org/2000/svg"><g fill="#fff"><path d="m24.9572 36.7392h11.785v-3.0997h-9.8046c1.4041-1.3093 2.4795-2.9097 3.1573-4.7363 1.3473-3.6452.9861-7.8805-.9416-11.0489-.5722-.9456-1.3148-1.8872-2.1954-2.8006-1.4529-1.5033-3.1898-2.8046-5.1621-3.8675l-20.7739-11.1862-.580324 1.76199c-.064931.19399-1.444716 4.50198 1.030784 7.53294-.0974 1.98027.53162 4.98697 3.39265 6.48627.10146.59.28814 1.3659.63714 2.154 1.01049 2.2712 2.87727 3.4876 5.22695 3.427l-.0811-3.0997c-2.54454.0647-2.76774-3.233-2.78803-3.6008l-.04058-1.0507-.99832-.3516c-2.64189-.9335-2.2523-3.91194-2.19955-4.23928l.14204-.81634-.60467-.56982c-.86034-.81229-1.06731-1.9883-1.05108-2.9865l17.21079 9.26664c.1056.0566.207.1172.3125.1738-1.8424 3.3098-2.8123 7.0277-2.8123 10.8468 0 3.0754.6209 6.0174 1.7531 8.7048h-6.9435v3.0997h8.5546c3.2872 5.2941 8.7495 9.1454 15.3035 10.2648l.5235-3.0552c-4.9469-.8446-9.1715-3.4957-12.0488-7.2056zm-.2435-19.5355c.7223.7517 1.3229 1.5114 1.7775 2.2591 1.4285 2.3479 1.6963 5.6335.6817 8.3694-.5965 1.6125-1.8627 3.6695-4.5208 5.0799-1.1079-2.4409-1.7207-5.1405-1.7207-7.9734 0-3.1967.7873-6.3125 2.2889-9.101.5316.4325 1.0307.8851 1.4934 1.366z"/><path d="m31.0316 14.985c1.1931 0 1.1931-1.8468 0-1.8468-1.1932 0-1.1932 1.8468 0 1.8468z"/><path d="m29.6039 10.2404c2.5688 0 4.6588 2.0813 4.6588 4.6394 0 .9861-.3043 1.9236-.8806 2.7198l1.4853 1.0709 6.1319 4.4454-4.1556-5.4153c.349-.8891.5357-1.8428.5357-2.8208 0-4.2676-3.486-7.74308-7.7755-7.74308-2.4674 0-4.809 1.18409-6.2699 3.16428l2.508 1.8348c.8765-1.1882 2.2807-1.8994 3.7619-1.8994z"/></g></svg>