<svg fill="none" height="41" viewBox="0 0 67 41" width="67" xmlns="http://www.w3.org/2000/svg" xmlns:xlink="http://www.w3.org/1999/xlink"><clipPath id="a"><path d="m0 0h67v41h-67z"/></clipPath><g clip-path="url(#a)" fill="#fff"><path d="m17.7333 7.66675v3.23335h3.1334v15.9333l-14.03337-19.16665h-6.83333v3.23335h3.1v19.2h-3.1v3.2333h10.2v-3.2333h-3.13333v-15.7l13.96663 18.9333h3.8v-22.4333h3.1667v-3.23335z"/><path d="m56.3333 7.66675v3.03335h2.8l-5.0333 6.8-5.1-6.8h2.7667v-3.03335h-10.2v3.23335h2.9l7.2666 9.3333-7.7333 9.8667h-3v3.2333h10.3333v-3.0667h-2.8l5.5667-7.3666 5.6333 7.3666h-3.0333v3.0667h10.3v-3.2333h-2.9l-7.6667-9.8667 7.3334-9.3333h2.8333v-3.23335z"/><path d="m40.6667 2.86667c.8 0 1.5.23333 1.8333.4.4-.86667.8-1.8 1.1667-2.66667-.5667-.3-1.9-.6-3.1667-.6-4.0667 0-6.6333 2.53333-7.2 6.76667l-1.6 12.06663h-2.9333l-1.0334 3.3h3.1.4334l-1.6334 12.3667c-.3 2.3667-1.5666 3.6333-3.6333 3.6333-.7667 0-1.4333-.1666-1.9-.3666-.3667.8666-.7 1.8-1.1 2.7.6333.3 2.0667.5 3.0667.5 3.9333 0 6.6666-2.3667 7.2333-6.7667l1.6-12.0667h2.9667l1.0333-3.3h-3.5l1.6333-12.36663c.3-2.3 1.5334-3.6 3.6334-3.6z"/></g></svg>