<svg fill="none" height="40" viewBox="0 0 200 40" width="200" xmlns="http://www.w3.org/2000/svg"><g fill="#fff"><path d="m20.65 16.725c0-.9-.125-1.6417-.375-2.225-.25-.6-.6083-1.0417-1.075-1.325-.45-.3-.9917-.4417-1.625-.425h-1.2v11.725c0 .45-.0083.8833-.025 1.3s-.0417.7333-.075.95c.2833-.0333.6417-.05 1.075-.05.45-.0167.7583-.025.925-.025v1.925h-7.3v-1.65c.3833-.0167.7-.0667.95-.15.2667-.0833.4667-.275.6-.575.15-.3.225-.7833.225-1.45v-11.975h-1.15c-.95.0167-1.7.3417-2.25.975s-.825 1.625-.825 2.975h-1.65l.125-5.65h15.15l.15 5.65z"/><path d="m23.9848 28.575v-1.65c.3833-.0167.7-.0667.95-.15.2666-.0833.4666-.275.6-.575.15-.3.225-.7833.225-1.45v-9.575c0-.45.0083-.8833.025-1.3.0333-.4167.0583-.7333.075-.95-.2667.0167-.6.0333-1 .05-.4 0-.6917.0083-.875.025v-1.925c1.1833-.0167 2.3666-.025 3.55-.025 1.1833 0 2.3666-.0083 3.55-.025 1.4666-.0167 2.7416.15 3.825.5 1.0833.35 1.9166.9167 2.5 1.7.5833.7833.8583 1.8417.825 3.175-.0167.7-.1917 1.3667-.525 2-.3167.6333-.8 1.1917-1.45 1.675-.6334.4833-1.4417.8667-2.425 1.15.3166.1333.625.35.925.65.3166.3.5833.6167.8.95l1.175 1.75c.3666.5667.6916 1.0167.975 1.35.2833.3333.5666.5833.85.75.2833.15.6083.2333.975.25v1.65h-4.125c-.3-.2167-.6-.525-.9-.925-.2834-.4167-.5917-.8917-.925-1.425l-1.85-3c-.2167-.3333-.4084-.6167-.575-.85-.15-.2333-.3084-.4333-.475-.6-.2667 0-.4917 0-.675 0-.1834 0-.3917 0-.625 0v2.675c0 .4667-.0084.9083-.025 1.325-.0167.4167-.0417.7333-.075.95.1833-.0167.4166-.025.7-.025.2833-.0167.5583-.025.825-.025.2833-.0167.4833-.025.6-.025v1.925zm6.6-8.6c.9333 0 1.6833-.1333 2.25-.4.5666-.2833.975-.7 1.225-1.25.2666-.5667.4-1.275.4-2.125 0-.8-.125-1.425-.375-1.875-.25-.4667-.5667-.8083-.95-1.025-.3667-.2333-.7417-.375-1.125-.425-.3834-.0667-.7-.1-.95-.1-.35 0-.65.0417-.9.125s-.4417.2667-.575.55c-.1334.2833-.2.7167-.2 1.3v5.125c.1833.0167.375.0417.575.075.2.0167.4083.025.625.025z"/><path d="m48.2984 12.725c-.3666.0167-.6833.0667-.95.15-.2666.0833-.475.275-.625.575-.1333.2833-.2.7667-.2 1.45v9.575c0 .45-.0083.8833-.025 1.3-.0166.4167-.0416.7333-.075.95.2667-.0333.6-.05 1-.05.4167-.0167.7084-.025.875-.025v1.925h-7.175v-1.65c.3834-.0167.7-.0667.95-.15.2667-.0833.4667-.275.6-.575.15-.3.225-.7833.225-1.45v-9.575c0-.45.0084-.8833.025-1.3.0334-.4167.0584-.7333.075-.95-.2666.0167-.6.0333-1 .05-.4 0-.6916.0083-.875.025v-1.925h7.175z"/><path d="m50.7914 28.575v-1.65c.3833-.0167.7-.0667.95-.15.2667-.0833.4667-.275.6-.575.15-.3.225-.7833.225-1.45v-9.575c0-.45.0083-.8833.025-1.3.0333-.4167.0583-.7333.075-.95-.2667.0167-.6.0333-1 .05-.4 0-.6917.0083-.875.025v-1.925c1.15-.0167 2.3-.025 3.45-.025 1.1667 0 2.325-.0083 3.475-.025 2-.0167 3.5833.3583 4.75 1.125 1.1833.75 1.7333 1.8917 1.65 3.425-.0333.4833-.1833.9583-.45 1.425-.2667.45-.6667.8583-1.2 1.225-.5167.3667-1.1667.6583-1.95.875v.025c1.6667.2667 2.8917.825 3.675 1.675.7833.8333 1.175 1.7667 1.175 2.8 0 1.0833-.2667 2-.8 2.75-.5167.7333-1.2333 1.2917-2.15 1.675-.9167.3667-1.9583.55-3.125.55zm5.3-1.775h.85.8c.2667-.0167.525-.025.775-.025 1.0167-.05 1.7583-.375 2.225-.975s.7-1.3583.7-2.275c0-.7667-.1583-1.3667-.475-1.8-.3167-.45-.725-.7667-1.225-.95-.4833-.1833-.9917-.275-1.525-.275-.4167 0-.775 0-1.075 0s-.6167.0083-.95.025v4.075c0 .45-.0083.875-.025 1.275s-.0417.7083-.075.925zm.1-8.05 1.3-.025c.7-.0167 1.25-.175 1.65-.475.4167-.3.7083-.7.875-1.2.1833-.5167.275-1.075.275-1.675 0-.6667-.1333-1.1833-.4-1.55-.2667-.3833-.6-.6583-1-.825s-.8167-.2417-1.25-.225c-.2667 0-.5083.0417-.725.125s-.3917.275-.525.575c-.1333.2833-.2.75-.2 1.4z"/><path d="m75.5512 22.55c0-.7-.1084-1.2-.325-1.5-.2167-.3167-.5167-.5167-.9-.6-.3667-.0833-.775-.1167-1.225-.1l-.65.025v4.1c0 .45-.0084.875-.025 1.275-.0167.4-.0417.7083-.075.925h3.35c.5 0 .9833-.1083 1.45-.325.4666-.2333.85-.6083 1.15-1.125.3-.5333.45-1.25.45-2.15h1.625l-.125 5.5h-13.2v-1.65c.3833-.0167.7-.0667.95-.15.2666-.0833.4666-.275.6-.575.15-.3.225-.7833.225-1.45v-9.575c0-.45.0083-.8833.025-1.3.0333-.4167.0583-.7333.075-.95-.2667.0167-.6.0333-1 .05-.4 0-.6917.0083-.875.025v-1.925h12.5l.15 4.85h-1.65c0-.9167-.1584-1.6083-.475-2.075-.3167-.4667-.7084-.775-1.175-.925-.4667-.1667-.925-.2417-1.375-.225l-.9.025c-.35 0-.65.05-.9.15-.25.0833-.4417.2833-.575.6-.1334.3-.2.775-.2 1.425v3.75h2.925l-.1-2.175h1.925v6.075z"/><path d="m102.119 16.675c-.217-1.3833-.683-2.425-1.4-3.125-.7-.7-1.6332-1.0583-2.7999-1.075-.8666 0-1.625.2-2.275.6s-1.1916.9333-1.625 1.6c-.4166.6667-.7333 1.425-.95 2.275-.2.85-.3 1.725-.3 2.625 0 1.4333.2 2.7083.6 3.825.4167 1.1 1.0167 1.9667 1.8 2.6.7834.6333 1.7334.95 2.85.95 1.05 0 2.0919-.2667 3.1249-.8 1.033-.55 1.9-1.3083 2.6-2.275l1.2 1.1c-.817 1.1167-1.675 1.9667-2.575 2.55-.9.5667-1.783.95-2.6499 1.15-.85.2-1.6166.3-2.3.3-1.2833 0-2.45-.225-3.5-.675-1.05-.4667-1.9583-1.1-2.725-1.9-.75-.8167-1.3333-1.7583-1.75-2.825-.4-1.0833-.6-2.25-.6-3.5 0-1.1333.1834-2.2583.55-3.375.3667-1.1167.9084-2.125 1.625-3.025.7334-.9167 1.65-1.6417 2.75-2.175 1.1-.55 2.375-.825 3.825-.825.65 0 1.3584.1083 2.125.325.7829.2 1.5169.5 2.1999.9l-.1-1.05h1.925v5.825z"/><path d="m105.11 28.575v-1.725c.467 0 .842-.1333 1.125-.4s.517-.6167.7-1.05c.2-.4333.392-.9.575-1.4l4.875-13.375h1.75l5.325 13.625c.1.25.233.6333.4 1.15.167.5.267.9417.3 1.325.283-.0333.55-.05.8-.05.267-.0167.483-.025.65-.025v1.925h-6.725v-1.65c.467 0 .783-.0917.95-.275.183-.2.267-.4667.25-.8s-.108-.7083-.275-1.125l-.5-1.375-5.425.1-.4 1.175c-.083.2167-.208.5417-.375.975-.15.4167-.292.7667-.425 1.05.267-.0333.583-.05.95-.05.383-.0167.658-.025.825-.025v2zm5.4-7h4.175l-1.15-3.125c-.217-.6-.408-1.2-.575-1.8-.167-.6167-.292-1.1583-.375-1.625h-.025c-.067.2833-.167.7083-.3 1.275s-.342 1.2417-.625 2.025z"/><path d="m122.959 26.925c.384-.0167.7-.0667.95-.15.267-.0833.467-.275.6-.575.15-.3.225-.7833.225-1.45v-9.575c0-.45.009-.8833.025-1.3.034-.4167.059-.7333.075-.95-.266.0167-.6.0333-1 .05-.4 0-.691.0083-.875.025v-1.925c1.184-.0167 2.367-.025 3.55-.025 1.184 0 2.367-.0083 3.55-.025 1.467-.0167 2.742.175 3.825.575 1.1.4 1.942 1.0167 2.525 1.85.6.8333.884 1.9167.85 3.25-.016.6667-.175 1.325-.475 1.975-.3.6333-.741 1.2167-1.325 1.75-.583.5167-1.316.9417-2.2 1.275-.883.3333-1.916.5167-3.1.55-.366.0167-.691.025-.975.025-.266 0-.541-.0083-.825-.025v2.2c0 .4667-.008.9083-.025 1.325-.016.4167-.041.7333-.075.95.184-.0167.417-.025.7-.025.284-.0167.559-.025.825-.025.284-.0167.484-.025.6-.025v1.925h-7.425zm5.4-6.55c.184.0167.367.0333.55.05.184.0167.375.025.575.025.917 0 1.659-.15 2.225-.45.584-.3167 1.009-.7667 1.275-1.35.267-.6.4-1.325.4-2.175 0-.8333-.116-1.5-.35-2-.216-.5-.5-.8667-.85-1.1-.35-.25-.716-.4083-1.1-.475-.383-.0833-.733-.125-1.05-.125-.35 0-.65.0417-.9.125s-.441.2667-.575.55c-.133.2833-.2.7167-.2 1.3z"/><path d="m145.955 12.725c-.367.0167-.684.0667-.95.15-.267.0833-.475.275-.625.575-.134.2833-.2.7667-.2 1.45v9.575c0 .45-.009.8833-.025 1.3-.017.4167-.042.7333-.075.95.266-.0333.6-.05 1-.05.416-.0167.708-.025.875-.025v1.925h-7.175v-1.65c.383-.0167.7-.0667.95-.15.266-.0833.466-.275.6-.575.15-.3.225-.7833.225-1.45v-9.575c0-.45.008-.8833.025-1.3.033-.4167.058-.7333.075-.95-.267.0167-.6.0333-1 .05-.4 0-.692.0083-.875.025v-1.925h7.175z"/><path d="m161.373 16.725c0-.9-.125-1.6417-.375-2.225-.25-.6-.609-1.0417-1.075-1.325-.45-.3-.992-.4417-1.625-.425h-1.2v11.725c0 .45-.009.8833-.025 1.3-.017.4167-.042.7333-.075.95.283-.0333.641-.05 1.075-.05.45-.0167.758-.025.925-.025v1.925h-7.3v-1.65c.383-.0167.7-.0667.95-.15.266-.0833.466-.275.6-.575.15-.3.225-.7833.225-1.45v-11.975h-1.15c-.95.0167-1.7.3417-2.25.975s-.825 1.625-.825 2.975h-1.65l.125-5.65h15.15l.15 5.65z"/><path d="m162.215 28.575v-1.725c.466 0 .841-.1333 1.125-.4.283-.2667.516-.6167.7-1.05.2-.4333.391-.9.575-1.4l4.875-13.375h1.75l5.325 13.625c.1.25.233.6333.4 1.15.166.5.266.9417.3 1.325.283-.0333.55-.05.8-.05.266-.0167.483-.025.65-.025v1.925h-6.725v-1.65c.466 0 .783-.0917.95-.275.183-.2.266-.4667.25-.8-.017-.3333-.109-.7083-.275-1.125l-.5-1.375-5.425.1-.4 1.175c-.084.2167-.209.5417-.375.975-.15.4167-.292.7667-.425 1.05.266-.0333.583-.05.95-.05.383-.0167.658-.025.825-.025v2zm5.4-7h4.175l-1.15-3.125c-.217-.6-.409-1.2-.575-1.8-.167-.6167-.292-1.1583-.375-1.625h-.025c-.067.2833-.167.7083-.3 1.275-.134.5667-.342 1.2417-.625 2.025z"/><path d="m180.064 28.575v-1.65c.383-.0167.7-.0667.95-.15.267-.0833.467-.275.6-.575.15-.3.225-.7833.225-1.45v-9.575c0-.45.008-.8833.025-1.3.033-.4167.058-.7333.075-.95-.267.0167-.6.0333-1 .05-.4 0-.692.0083-.875.025v-1.925h7.175v1.65c-.367.0167-.683.0667-.95.15s-.475.275-.625.575c-.133.2833-.2.7667-.2 1.45v9.575c0 .45-.008.875-.025 1.275s-.042.7083-.075.925h3.35c.983-.0167 1.75-.3583 2.3-1.025.567-.6833.85-1.7083.85-3.075h1.675l-.15 6z"/></g></svg>